<svg width="98" height="42" viewBox="0 0 98 42" fill="none" xmlns="http://www.w3.org/2000/svg">
<g filter="url(#filter0_d_132_15646)">
<rect x="4.53491" y="4.75977" width="88.4651" height="32.7591" rx="16.3795" fill="#F2F2F2" fill-opacity="0.48" shape-rendering="crispEdges"/>
<rect x="14.5349" y="16.1387" width="10" height="10" rx="5" fill="#009933"/>
<path d="M39.9041 24.8667H35.2481L34.4481 27.1387H32.5441L36.5281 16.0027H38.6401L42.6241 27.1387H40.7041L39.9041 24.8667ZM39.3921 23.3787L37.5841 18.2107L35.7601 23.3787H39.3921ZM43.7483 22.7227C43.7483 21.816 43.9296 21.0213 44.2923 20.3387C44.6656 19.6453 45.1776 19.112 45.8283 18.7387C46.479 18.3653 47.2256 18.1787 48.0683 18.1787C49.135 18.1787 50.015 18.4347 50.7083 18.9467C51.4123 19.448 51.887 20.168 52.1323 21.1067H50.1643C50.0043 20.6693 49.7483 20.328 49.3963 20.0827C49.0443 19.8373 48.6016 19.7147 48.0683 19.7147C47.3216 19.7147 46.7243 19.9813 46.2763 20.5147C45.839 21.0373 45.6203 21.7733 45.6203 22.7227C45.6203 23.672 45.839 24.4133 46.2763 24.9467C46.7243 25.48 47.3216 25.7467 48.0683 25.7467C49.1243 25.7467 49.823 25.2827 50.1643 24.3547H52.1323C51.8763 25.2507 51.3963 25.9653 50.6923 26.4987C49.9883 27.0213 49.1136 27.2827 48.0683 27.2827C47.2256 27.2827 46.479 27.096 45.8283 26.7227C45.1776 26.3387 44.6656 25.8053 44.2923 25.1227C43.9296 24.4293 43.7483 23.6293 43.7483 22.7227ZM56.0781 19.8107V24.6907C56.0781 25.0213 56.1527 25.2613 56.3021 25.4107C56.4621 25.5493 56.7287 25.6187 57.1021 25.6187H58.2221V27.1387H56.7821C55.9607 27.1387 55.3314 26.9467 54.8941 26.5627C54.4567 26.1787 54.2381 25.5547 54.2381 24.6907V19.8107H53.1981V18.3227H54.2381V16.1307H56.0781V18.3227H58.2221V19.8107H56.0781ZM60.8312 17.1547C60.5005 17.1547 60.2232 17.0427 59.9992 16.8187C59.7752 16.5947 59.6632 16.3173 59.6632 15.9867C59.6632 15.656 59.7752 15.3787 59.9992 15.1547C60.2232 14.9307 60.5005 14.8187 60.8312 14.8187C61.1512 14.8187 61.4232 14.9307 61.6472 15.1547C61.8712 15.3787 61.9832 15.656 61.9832 15.9867C61.9832 16.3173 61.8712 16.5947 61.6472 16.8187C61.4232 17.0427 61.1512 17.1547 60.8312 17.1547ZM61.7272 18.3227V27.1387H59.9032V18.3227H61.7272ZM67.5299 25.5067L70.0259 18.3227H71.9619L68.6019 27.1387H66.4259L63.0819 18.3227H65.0339L67.5299 25.5067ZM81.4207 22.5147C81.4207 22.8453 81.3994 23.144 81.3567 23.4107H74.6207C74.674 24.1147 74.9354 24.68 75.4047 25.1067C75.874 25.5333 76.45 25.7467 77.1327 25.7467C78.114 25.7467 78.8074 25.336 79.2127 24.5147H81.1807C80.914 25.3253 80.4287 25.992 79.7247 26.5147C79.0314 27.0267 78.1674 27.2827 77.1327 27.2827C76.29 27.2827 75.5327 27.096 74.8607 26.7227C74.1994 26.3387 73.6767 25.8053 73.2927 25.1227C72.9194 24.4293 72.7327 23.6293 72.7327 22.7227C72.7327 21.816 72.914 21.0213 73.2767 20.3387C73.65 19.6453 74.1674 19.112 74.8287 18.7387C75.5007 18.3653 76.2687 18.1787 77.1327 18.1787C77.9647 18.1787 78.706 18.36 79.3567 18.7227C80.0074 19.0853 80.514 19.5973 80.8767 20.2587C81.2394 20.9093 81.4207 21.6613 81.4207 22.5147ZM79.5167 21.9387C79.506 21.2667 79.266 20.728 78.7967 20.3227C78.3274 19.9173 77.746 19.7147 77.0527 19.7147C76.4234 19.7147 75.8847 19.9173 75.4367 20.3227C74.9887 20.7173 74.722 21.256 74.6367 21.9387H79.5167Z" fill="#009933"/>
</g>
<defs>
<filter id="filter0_d_132_15646" x="0.0558405" y="0.280694" width="97.4232" height="41.7179" filterUnits="userSpaceOnUse" color-interpolation-filters="sRGB">
<feFlood flood-opacity="0" result="BackgroundImageFix"/>
<feColorMatrix in="SourceAlpha" type="matrix" values="0 0 0 0 0 0 0 0 0 0 0 0 0 0 0 0 0 0 127 0" result="hardAlpha"/>
<feOffset/>
<feGaussianBlur stdDeviation="2.23954"/>
<feComposite in2="hardAlpha" operator="out"/>
<feColorMatrix type="matrix" values="0 0 0 0 0 0 0 0 0 0.2 0 0 0 0 0.6 0 0 0 0.03 0"/>
<feBlend mode="normal" in2="BackgroundImageFix" result="effect1_dropShadow_132_15646"/>
<feBlend mode="normal" in="SourceGraphic" in2="effect1_dropShadow_132_15646" result="shape"/>
</filter>
</defs>
</svg>
