<svg width="22" height="22" viewBox="0 0 22 22" fill="none" xmlns="http://www.w3.org/2000/svg">
<path fill-rule="evenodd" clip-rule="evenodd" d="M0.189575 11.0158C0.189575 5.38484 4.68973 0.310547 10.9002 0.310547C16.9716 0.310547 21.568 5.2885 21.568 10.9837C21.568 17.5888 16.1806 21.689 10.8788 21.689C9.12575 21.689 7.18032 21.2179 5.61969 20.2973C5.07454 19.9654 4.61491 19.7192 4.027 19.9119L1.86778 20.5542C1.32263 20.7255 0.830928 20.2973 0.991266 19.7192L1.70744 17.3212C1.82502 16.9894 1.80365 16.6361 1.63262 16.3577C0.713346 14.6663 0.189575 12.8143 0.189575 11.0158ZM5.92927 12.3972C5.18102 12.3972 4.56105 11.7763 4.56105 11.0269C4.56105 10.2668 5.17033 9.65663 5.92927 9.65663C6.6882 9.65663 7.29748 10.2668 7.29748 11.0269C7.29748 11.7763 6.6882 12.3865 5.92927 12.3972ZM9.48931 11.0163C9.48931 11.7764 10.0986 12.3866 10.8575 12.3973C11.6165 12.3973 12.2257 11.7764 12.2257 11.027C12.2257 10.267 11.6165 9.65677 10.8575 9.65677C10.1093 9.64606 9.48931 10.267 9.48931 11.0163ZM14.4169 11.027C14.4169 11.7764 15.0262 12.3973 15.7851 12.3973C16.5441 12.3973 17.1533 11.7764 17.1533 11.027C17.1533 10.267 16.5441 9.65676 15.7851 9.65676C15.0262 9.65676 14.4169 10.267 14.4169 11.027Z" fill="#009933"/>
</svg>
