<svg width="38" height="38" viewBox="0 0 38 38" fill="none" xmlns="http://www.w3.org/2000/svg">
<rect x="0.653741" y="0.653741" width="36.6095" height="36.6095" rx="18.3048" fill="#E6F5EB"/>
<rect x="0.653741" y="0.653741" width="36.6095" height="36.6095" rx="18.3048" stroke="#D9F0E0" stroke-width="1.30748"/>
<path d="M23.5812 25.4301C24.0918 25.9407 24.9196 25.9407 25.4302 25.4301C25.9408 24.9195 25.9408 24.0917 25.4302 23.5811L20.8076 18.9585L25.4302 14.3359C25.9408 13.8253 25.9408 12.9974 25.4302 12.4868C24.9196 11.9762 24.0917 11.9762 23.5811 12.4868L18.9586 17.1094L14.3359 12.4867C13.8253 11.9761 12.9974 11.9761 12.4868 12.4867C11.9762 12.9973 11.9762 13.8252 12.4868 14.3358L17.1095 18.9585L12.4868 23.5812C11.9762 24.0918 11.9762 24.9196 12.4868 25.4302C12.9974 25.9408 13.8252 25.9408 14.3358 25.4302L18.9586 20.8075L23.5812 25.4301Z" fill="#626262"/>
</svg>
