<svg width="40" height="40" viewBox="0 0 40 40" fill="none" xmlns="http://www.w3.org/2000/svg">
<path d="M26.6667 10H13.3333V11.6667H26.6667V10ZM13.3333 30H26.6667V28.3333H13.3333V30ZM26.6667 13.3333H13.3333C12.4167 13.3333 11.6667 14.0833 11.6667 15V25C11.6667 25.9167 12.4167 26.6667 13.3333 26.6667H26.6667C27.5833 26.6667 28.3333 25.9167 28.3333 25V15C28.3333 14.0833 27.5833 13.3333 26.6667 13.3333ZM20 15.625C21.0333 15.625 21.875 16.4667 21.875 17.5C21.875 18.5333 21.0333 19.375 20 19.375C18.9667 19.375 18.125 18.5333 18.125 17.5C18.125 16.4667 18.9667 15.625 20 15.625ZM24.1667 24.1667H15.8333V22.9167C15.8333 21.525 18.6083 20.8333 20 20.8333C21.3917 20.8333 24.1667 21.525 24.1667 22.9167V24.1667Z" fill="#009933"/>
</svg>
