<svg width="104" height="33" viewBox="0 0 104 33" fill="none" xmlns="http://www.w3.org/2000/svg">
<g filter="url(#filter0_d_130_6644)">
<rect x="4.78107" y="5.104" width="94.4378" height="22.7591" rx="2.91969" fill="#009933" fill-opacity="0.05" shape-rendering="crispEdges"/>
<rect x="5.28107" y="5.604" width="93.4378" height="21.7591" rx="2.41969" stroke="#009933" stroke-opacity="0.2" shape-rendering="crispEdges"/>
<path d="M16.7935 13.7612V15.6971H19.0711V16.5797H16.7935V18.6011H19.3558V19.4836H15.7117V12.8786H19.3558V13.7612H16.7935ZM22.928 16.8359L24.6172 19.4836H23.393L22.2637 17.709L21.2008 19.4836H20.0715L21.7607 16.9119L20.0715 14.2547H21.2957L22.425 16.0293L23.4879 14.2547H24.6172L22.928 16.8359ZM25.0635 16.8644C25.0635 16.3266 25.171 15.8553 25.3862 15.4504C25.6076 15.0392 25.9113 14.7228 26.2972 14.5014C26.6831 14.28 27.126 14.1692 27.6258 14.1692C28.2585 14.1692 28.7804 14.3211 29.1916 14.6248C29.6092 14.9221 29.8907 15.3492 30.0363 15.9059H28.869C28.7741 15.6465 28.6222 15.4441 28.4135 15.2986C28.2047 15.153 27.9421 15.0803 27.6258 15.0803C27.1829 15.0803 26.8286 15.2384 26.5629 15.5548C26.3035 15.8648 26.1738 16.3013 26.1738 16.8644C26.1738 17.4275 26.3035 17.8672 26.5629 18.1835C26.8286 18.4998 27.1829 18.658 27.6258 18.658C28.2521 18.658 28.6665 18.3828 28.869 17.8324H30.0363C29.8844 18.3638 29.5997 18.7877 29.1822 19.104C28.7646 19.414 28.2458 19.5691 27.6258 19.5691C27.126 19.5691 26.6831 19.4583 26.2972 19.2369C25.9113 19.0091 25.6076 18.6928 25.3862 18.2879C25.171 17.8767 25.0635 17.4022 25.0635 16.8644ZM35.9069 16.741C35.9069 16.9372 35.8942 17.1143 35.8689 17.2725H31.8736C31.9052 17.69 32.0602 18.0253 32.3386 18.2784C32.617 18.5315 32.9586 18.658 33.3635 18.658C33.9456 18.658 34.3568 18.4144 34.5972 17.9273H35.7645C35.6063 18.4081 35.3185 18.8035 34.9009 19.1135C34.4897 19.4172 33.9772 19.5691 33.3635 19.5691C32.8637 19.5691 32.4145 19.4583 32.016 19.2369C31.6237 19.0091 31.3137 18.6928 31.0859 18.2879C30.8645 17.8767 30.7538 17.4022 30.7538 16.8644C30.7538 16.3266 30.8613 15.8553 31.0764 15.4504C31.2979 15.0392 31.6047 14.7228 31.997 14.5014C32.3956 14.28 32.8511 14.1692 33.3635 14.1692C33.857 14.1692 34.2967 14.2768 34.6826 14.4919C35.0686 14.707 35.3691 15.0107 35.5842 15.4029C35.7993 15.7889 35.9069 16.2349 35.9069 16.741ZM34.7775 16.3994C34.7712 16.0008 34.6289 15.6813 34.3505 15.4409C34.0721 15.2005 33.7273 15.0803 33.3161 15.0803C32.9428 15.0803 32.6233 15.2005 32.3576 15.4409C32.0919 15.675 31.9337 15.9945 31.8831 16.3994H34.7775ZM38.0534 12.461V19.4836H36.9715V12.461H38.0534ZM40.5556 12.461V19.4836H39.4738V12.461H40.5556ZM46.7685 16.741C46.7685 16.9372 46.7558 17.1143 46.7305 17.2725H42.7352C42.7668 17.69 42.9218 18.0253 43.2002 18.2784C43.4786 18.5315 43.8202 18.658 44.2251 18.658C44.8072 18.658 45.2184 18.4144 45.4588 17.9273H46.6261C46.4679 18.4081 46.1801 18.8035 45.7625 19.1135C45.3513 19.4172 44.8388 19.5691 44.2251 19.5691C43.7253 19.5691 43.2761 19.4583 42.8776 19.2369C42.4853 19.0091 42.1753 18.6928 41.9475 18.2879C41.7261 17.8767 41.6154 17.4022 41.6154 16.8644C41.6154 16.3266 41.7229 15.8553 41.938 15.4504C42.1595 15.0392 42.4663 14.7228 42.8586 14.5014C43.2572 14.28 43.7127 14.1692 44.2251 14.1692C44.7186 14.1692 45.1583 14.2768 45.5442 14.4919C45.9302 14.707 46.2307 15.0107 46.4458 15.4029C46.6609 15.7889 46.7685 16.2349 46.7685 16.741ZM45.6391 16.3994C45.6328 16.0008 45.4905 15.6813 45.2121 15.4409C44.9337 15.2005 44.5889 15.0803 44.1777 15.0803C43.8044 15.0803 43.4849 15.2005 43.2192 15.4409C42.9535 15.675 42.7953 15.9945 42.7447 16.3994H45.6391ZM50.4713 14.1692C50.8826 14.1692 51.2495 14.2547 51.5722 14.4255C51.9012 14.5963 52.1574 14.8494 52.3409 15.1847C52.5243 15.52 52.6161 15.9249 52.6161 16.3994V19.4836H51.5437V16.5607C51.5437 16.0925 51.4267 15.7351 51.1926 15.4884C50.9585 15.2353 50.639 15.1088 50.2341 15.1088C49.8292 15.1088 49.5065 15.2353 49.2661 15.4884C49.032 15.7351 48.915 16.0925 48.915 16.5607V19.4836H47.8331V14.2547H48.915V14.8525C49.0921 14.6374 49.3167 14.4698 49.5888 14.3496C49.8671 14.2293 50.1613 14.1692 50.4713 14.1692ZM55.2582 15.1372V18.0317C55.2582 18.2278 55.3025 18.3701 55.3911 18.4587C55.486 18.541 55.6441 18.5821 55.8656 18.5821H56.5299V19.4836H55.6758C55.1886 19.4836 54.8154 19.3698 54.556 19.142C54.2966 18.9142 54.1669 18.5441 54.1669 18.0317V15.1372H53.55V14.2547H54.1669V12.9545H55.2582V14.2547H56.5299V15.1372H55.2582ZM61.074 15.0233C61.2575 14.7829 61.5074 14.5805 61.8237 14.416C62.1401 14.2515 62.4975 14.1692 62.8961 14.1692C63.3516 14.1692 63.766 14.2831 64.1393 14.5109C64.5189 14.7323 64.8163 15.0455 65.0314 15.4504C65.2465 15.8553 65.354 16.3203 65.354 16.8454C65.354 17.3705 65.2465 17.8419 65.0314 18.2594C64.8163 18.6707 64.5189 18.9933 64.1393 19.2274C63.766 19.4552 63.3516 19.5691 62.8961 19.5691C62.4975 19.5691 62.1432 19.49 61.8332 19.3318C61.5232 19.1673 61.2702 18.9649 61.074 18.7244V21.97H59.9922V14.2547H61.074V15.0233ZM64.2532 16.8454C64.2532 16.4848 64.1773 16.1748 64.0254 15.9154C63.8799 15.6497 63.6838 15.4504 63.437 15.3175C63.1966 15.1783 62.9372 15.1088 62.6589 15.1088C62.3868 15.1088 62.1274 15.1783 61.8807 15.3175C61.6403 15.4567 61.4441 15.6592 61.2923 15.9249C61.1468 16.1906 61.074 16.5038 61.074 16.8644C61.074 17.225 61.1468 17.5414 61.2923 17.8134C61.4441 18.0791 61.6403 18.2816 61.8807 18.4208C62.1274 18.5599 62.3868 18.6295 62.6589 18.6295C62.9372 18.6295 63.1966 18.5599 63.437 18.4208C63.6838 18.2752 63.8799 18.0665 64.0254 17.7944C64.1773 17.5224 64.2532 17.206 64.2532 16.8454ZM71.1594 14.2547V19.4836H70.0775V18.8668C69.9067 19.0819 69.6821 19.2527 69.4037 19.3793C69.1317 19.4995 68.8407 19.5596 68.5307 19.5596C68.1194 19.5596 67.7493 19.4742 67.4203 19.3033C67.0977 19.1325 66.8414 18.8794 66.6516 18.5441C66.4682 18.2088 66.3764 17.8039 66.3764 17.3294V14.2547H67.4488V17.1681C67.4488 17.6363 67.5658 17.9969 67.7999 18.2499C68.034 18.4967 68.3535 18.6201 68.7584 18.6201C69.1633 18.6201 69.4828 18.4967 69.7169 18.2499C69.9573 17.9969 70.0775 17.6363 70.0775 17.1681V14.2547H71.1594ZM78.9166 14.1692C79.3279 14.1692 79.6948 14.2547 80.0175 14.4255C80.3465 14.5963 80.6027 14.8494 80.7862 15.1847C80.976 15.52 81.0709 15.9249 81.0709 16.3994V19.4836H79.9985V16.5607C79.9985 16.0925 79.8815 15.7351 79.6474 15.4884C79.4133 15.2353 79.0938 15.1088 78.6889 15.1088C78.284 15.1088 77.9613 15.2353 77.7209 15.4884C77.4868 15.7351 77.3698 16.0925 77.3698 16.5607V19.4836H76.2974V16.5607C76.2974 16.0925 76.1804 15.7351 75.9463 15.4884C75.7122 15.2353 75.3927 15.1088 74.9878 15.1088C74.5829 15.1088 74.2602 15.2353 74.0198 15.4884C73.7857 15.7351 73.6687 16.0925 73.6687 16.5607V19.4836H72.5868V14.2547H73.6687V14.8525C73.8458 14.6374 74.0704 14.4698 74.3425 14.3496C74.6145 14.2293 74.9055 14.1692 75.2155 14.1692C75.6331 14.1692 76.0064 14.2578 76.3354 14.435C76.6644 14.6121 76.9174 14.8683 77.0946 15.2037C77.2527 14.8873 77.4995 14.6374 77.8348 14.4539C78.1701 14.2641 78.5307 14.1692 78.9166 14.1692ZM83.5294 15.0233C83.7128 14.7829 83.9628 14.5805 84.2791 14.416C84.5954 14.2515 84.9529 14.1692 85.3515 14.1692C85.807 14.1692 86.2214 14.2831 86.5946 14.5109C86.9742 14.7323 87.2716 15.0455 87.4867 15.4504C87.7018 15.8553 87.8094 16.3203 87.8094 16.8454C87.8094 17.3705 87.7018 17.8419 87.4867 18.2594C87.2716 18.6707 86.9742 18.9933 86.5946 19.2274C86.2214 19.4552 85.807 19.5691 85.3515 19.5691C84.9529 19.5691 84.5986 19.49 84.2886 19.3318C83.9786 19.1673 83.7255 18.9649 83.5294 18.7244V21.97H82.4475V14.2547H83.5294V15.0233ZM86.7085 16.8454C86.7085 16.4848 86.6326 16.1748 86.4808 15.9154C86.3353 15.6497 86.1391 15.4504 85.8924 15.3175C85.652 15.1783 85.3926 15.1088 85.1142 15.1088C84.8422 15.1088 84.5828 15.1783 84.336 15.3175C84.0956 15.4567 83.8995 15.6592 83.7476 15.9249C83.6021 16.1906 83.5294 16.5038 83.5294 16.8644C83.5294 17.225 83.6021 17.5414 83.7476 17.8134C83.8995 18.0791 84.0956 18.2816 84.336 18.4208C84.5828 18.5599 84.8422 18.6295 85.1142 18.6295C85.3926 18.6295 85.652 18.5599 85.8924 18.4208C86.1391 18.2752 86.3353 18.0665 86.4808 17.7944C86.6326 17.5224 86.7085 17.206 86.7085 16.8454Z" fill="#009933"/>
</g>
<defs>
<filter id="filter0_d_130_6644" x="0.301995" y="0.624932" width="103.396" height="31.7172" filterUnits="userSpaceOnUse" color-interpolation-filters="sRGB">
<feFlood flood-opacity="0" result="BackgroundImageFix"/>
<feColorMatrix in="SourceAlpha" type="matrix" values="0 0 0 0 0 0 0 0 0 0 0 0 0 0 0 0 0 0 127 0" result="hardAlpha"/>
<feOffset/>
<feGaussianBlur stdDeviation="2.23954"/>
<feComposite in2="hardAlpha" operator="out"/>
<feColorMatrix type="matrix" values="0 0 0 0 0 0 0 0 0 0.2 0 0 0 0 0.6 0 0 0 0.03 0"/>
<feBlend mode="normal" in2="BackgroundImageFix" result="effect1_dropShadow_130_6644"/>
<feBlend mode="normal" in="SourceGraphic" in2="effect1_dropShadow_130_6644" result="shape"/>
</filter>
</defs>
</svg>
