<svg width="80" height="33" viewBox="0 0 80 33" fill="none" xmlns="http://www.w3.org/2000/svg">
<g filter="url(#filter0_d_25_4141)">
<rect x="5.28107" y="5.21313" width="69.4378" height="22.7591" rx="2.91969" fill="#EBBC46" fill-opacity="0.05" shape-rendering="crispEdges"/>
<rect x="5.78107" y="5.71313" width="68.4378" height="21.7591" rx="2.41969" stroke="#EBBC46" stroke-opacity="0.2" shape-rendering="crispEdges"/>
<path d="M16.2117 19.5928V12.9972H20.0931V13.8798H17.2935V15.8252H19.4762V16.7078H17.2935V19.5928H16.2117ZM20.7351 16.9546C20.7351 15.3413 21.8264 14.2784 23.2025 14.2784C24.0851 14.2784 24.6924 14.6959 25.0151 15.123V14.3638H26.1064V19.5928H25.0151V18.8146C24.6829 19.2606 24.0566 19.6782 23.1835 19.6782C21.8264 19.6782 20.7351 18.5679 20.7351 16.9546ZM25.0151 16.9735C25.0151 15.8537 24.2464 15.2179 23.4302 15.2179C22.6236 15.2179 21.8454 15.8252 21.8454 16.9546C21.8454 18.0839 22.6236 18.7387 23.4302 18.7387C24.2464 18.7387 25.0151 18.1028 25.0151 16.9735ZM27.5274 19.5928V14.3638H28.6093V19.5928H27.5274ZM28.0778 13.671C27.6887 13.671 27.3851 13.3673 27.3851 12.9782C27.3851 12.5892 27.6887 12.2855 28.0778 12.2855C28.4574 12.2855 28.7611 12.5892 28.7611 12.9782C28.7611 13.3673 28.4574 13.671 28.0778 13.671ZM31.1115 16.8407V19.5928H30.0296V14.3638H31.1115V15.123C31.4152 14.601 31.9371 14.2784 32.6774 14.2784V15.3982H32.4021C31.605 15.3982 31.1115 15.7303 31.1115 16.8407ZM37.2188 15.1325C37.551 14.6959 38.1868 14.2784 39.0409 14.2784C40.417 14.2784 41.4988 15.3413 41.4988 16.9546C41.4988 18.5679 40.417 19.6782 39.0409 19.6782C38.1773 19.6782 37.5605 19.2416 37.2188 18.8336V22.0792H36.137V14.3638H37.2188V15.1325ZM40.398 16.9546C40.398 15.8252 39.6198 15.2179 38.8037 15.2179C37.997 15.2179 37.2188 15.8537 37.2188 16.9735C37.2188 18.1028 37.997 18.7387 38.8037 18.7387C39.6198 18.7387 40.398 18.0839 40.398 16.9546ZM47.3042 14.3638V19.5928H46.2223V18.9664C45.8807 19.4125 45.2923 19.6687 44.6755 19.6687C43.4513 19.6687 42.5212 18.9 42.5212 17.4385V14.3638H43.5936V17.2772C43.5936 18.2357 44.1156 18.7292 44.9032 18.7292C45.7004 18.7292 46.2223 18.2357 46.2223 17.2772V14.3638H47.3042ZM56.1433 19.5928V16.6699C56.1433 15.7114 55.6214 15.2179 54.8337 15.2179C54.0365 15.2179 53.5146 15.7114 53.5146 16.6699V19.5928H52.4422V16.6699C52.4422 15.7114 51.9203 15.2179 51.1326 15.2179C50.3354 15.2179 49.8135 15.7114 49.8135 16.6699V19.5928H48.7316V14.3638H49.8135V14.9617C50.1646 14.5346 50.734 14.2784 51.3604 14.2784C52.186 14.2784 52.8788 14.6295 53.2394 15.3128C53.562 14.677 54.3023 14.2784 55.0615 14.2784C56.2857 14.2784 57.2157 15.0471 57.2157 16.5085V19.5928H56.1433ZM59.6742 15.1325C60.0063 14.6959 60.6422 14.2784 61.4963 14.2784C62.8723 14.2784 63.9542 15.3413 63.9542 16.9546C63.9542 18.5679 62.8723 19.6782 61.4963 19.6782C60.6327 19.6782 60.0158 19.2416 59.6742 18.8336V22.0792H58.5923V14.3638H59.6742V15.1325ZM62.8533 16.9546C62.8533 15.8252 62.0752 15.2179 61.259 15.2179C60.4524 15.2179 59.6742 15.8537 59.6742 16.9735C59.6742 18.1028 60.4524 18.7387 61.259 18.7387C62.0752 18.7387 62.8533 18.0839 62.8533 16.9546Z" fill="#EBBC46"/>
</g>
<defs>
<filter id="filter0_d_25_4141" x="0.801995" y="0.734063" width="78.3959" height="31.7172" filterUnits="userSpaceOnUse" color-interpolation-filters="sRGB">
<feFlood flood-opacity="0" result="BackgroundImageFix"/>
<feColorMatrix in="SourceAlpha" type="matrix" values="0 0 0 0 0 0 0 0 0 0 0 0 0 0 0 0 0 0 127 0" result="hardAlpha"/>
<feOffset/>
<feGaussianBlur stdDeviation="2.23954"/>
<feComposite in2="hardAlpha" operator="out"/>
<feColorMatrix type="matrix" values="0 0 0 0 0 0 0 0 0 0.2 0 0 0 0 0.6 0 0 0 0.03 0"/>
<feBlend mode="normal" in2="BackgroundImageFix" result="effect1_dropShadow_25_4141"/>
<feBlend mode="normal" in="SourceGraphic" in2="effect1_dropShadow_25_4141" result="shape"/>
</filter>
</defs>
</svg>
