<svg width="45" height="45" viewBox="0 0 45 45" fill="none" xmlns="http://www.w3.org/2000/svg">
<rect width="45" height="45" rx="22.5" fill="#F7F7F7"/>
<path fill-rule="evenodd" clip-rule="evenodd" d="M19.9192 17.9448C19.9192 19.4877 18.6471 20.7383 17.0766 20.7383C15.5071 20.7383 14.2341 19.4877 14.2341 17.9448C14.2341 16.4027 15.5071 15.1521 17.0766 15.1521C18.6471 15.1521 19.9192 16.4027 19.9192 17.9448ZM29.5204 16.72C30.2074 16.72 30.7658 17.2686 30.7658 17.9435C30.7658 18.6194 30.2074 19.168 29.5204 19.168H24.0852C23.3973 19.168 22.8389 18.6194 22.8389 17.9435C22.8389 17.2686 23.3973 16.72 24.0852 16.72H29.5204ZM15.4804 25.8624H20.9156C21.6035 25.8624 22.1619 26.411 22.1619 27.0869C22.1619 27.7618 21.6035 28.3113 20.9156 28.3113H15.4804C14.7925 28.3113 14.2341 27.7618 14.2341 27.0869C14.2341 26.411 14.7925 25.8624 15.4804 25.8624ZM27.9233 29.8478C29.4938 29.8478 30.7658 28.5972 30.7658 27.0551C30.7658 25.5121 29.4938 24.2615 27.9233 24.2615C26.3537 24.2615 25.0808 25.5121 25.0808 27.0551C25.0808 28.5972 26.3537 29.8478 27.9233 29.8478Z" fill="#009933"/>
</svg>
