<svg width="281" height="106" viewBox="0 0 281 106" fill="none" xmlns="http://www.w3.org/2000/svg">
<g clip-path="url(#clip0_583_3241)">
<path d="M43.7512 48.8375L45.9007 38.5497H9.59731L0 84.7436H11.4752L15.0315 67.3956H37.6467L39.7933 57.1077H17.3139L18.923 48.8375H43.7512Z" fill="black"/>
<path d="M69.2728 49.981L65.179 69.6129V69.5463C64.5088 72.9766 60.9524 76.0681 57.058 76.0681C54.507 76.0681 52.8978 74.5224 52.8978 71.8998C52.8978 70.6898 53.1665 69.6795 57.3267 49.981H46.4553C42.0929 70.5566 41.5556 72.305 41.5556 74.8582C41.5556 81.1107 45.7822 85.5483 52.5598 85.5483C56.5178 85.5483 60.1435 84.0691 62.6916 81.4465L62.0214 84.7407H73.3607L80.6093 49.9781H69.2699L69.2728 49.981Z" fill="black"/>
<path d="M96.9409 70.4871C107.676 70.8229 113.986 66.3853 113.986 58.6535C113.986 53.0725 108.483 49.1733 100.7 49.1733C100.041 49.1733 99.3879 49.2052 98.7407 49.2631L99.1857 49.8159C99.9541 49.6104 100.763 49.5004 101.598 49.5004C106.74 49.5004 110.912 53.6804 110.912 58.833C110.912 63.9856 106.74 68.1656 101.598 68.1656C98.1774 68.1656 95.1873 66.3158 93.5665 63.563H91.3044C91.7233 62.8972 92.2029 62.2719 92.7345 61.7046C92.4427 60.8014 92.2838 59.8346 92.2838 58.833C92.2838 57.128 92.7403 55.533 93.5376 54.1551L91.576 51.2199C84.3217 54.6646 79.2919 62.0924 79.2919 70.7534C79.2919 79.5621 85.3299 85.5454 94.9272 85.5454C100.229 85.5454 106.134 83.6639 109.826 80.4363L104.054 73.0403C101.436 74.9913 98.1485 76.3345 94.9272 76.3345C91.3044 76.3345 89.2908 74.3834 89.2908 70.6203V70.4842H96.9409V70.4871Z" fill="black"/>
<path d="M112.195 84.7436H123.604L133.334 37.745H121.925L112.195 84.7436Z" fill="black"/>
<path d="M162.747 84.7436H175.43L166.841 38.8218L166.973 38.5526H153.889L126.042 84.7436H139.196L143.422 77.6834H161.406L162.75 84.7436H162.747ZM148.654 69.0108L157.11 54.957L159.794 69.0108H148.654Z" fill="#009933"/>
<path d="M176.591 84.7436H187.997L197.727 37.745H186.321L176.591 84.7436Z" fill="#009933"/>
<path d="M211.707 70.49C222.443 70.8258 228.752 66.3882 228.752 58.6564C228.752 53.0754 223.249 49.1762 215.466 49.1762C203.655 49.1762 194.058 58.7925 194.058 70.7592C194.058 79.5679 200.099 85.5512 209.693 85.5512C214.995 85.5512 220.9 83.6697 224.592 80.4421L218.82 73.0461C216.202 74.9971 212.915 76.3402 209.693 76.3402C206.071 76.3402 204.057 74.3892 204.057 70.6261V70.4929H211.707V70.49ZM215.061 58.3206C217.208 58.3206 218.753 59.2614 218.753 60.5409C218.753 62.4224 216.607 63.5659 213.05 63.5659H206.071C208.018 60.4743 211.236 58.3206 215.061 58.3206Z" fill="#009933"/>
<path fill-rule="evenodd" clip-rule="evenodd" d="M245.003 51.6657L245.347 49.9809H234.004L232.219 58.5406C232.571 57.953 233.253 57.6577 233.938 57.8835C234.527 58.0775 235.122 58.2367 235.718 58.4046C235.853 58.338 236.05 58.1933 236.136 58.1267C236.87 57.5651 237.616 57.0064 238.367 56.4651L238.849 56.1149L239.283 56.523L241.108 55.0467L241.184 55.1307L244.997 51.6686L245.003 51.6657ZM243.321 64.7585C245.846 60.9982 250.223 58.6535 255.346 58.6535L256.49 49.6683L250.98 52.0015C250.596 52.1636 249.828 52.7888 249.403 53.1507L248.314 54.9078L247.944 54.6993L247.213 55.8775L246.858 55.6778L246.138 56.8356L245.8 56.6446L245.095 57.7822L244.598 57.5043L243.908 58.1296L243.951 58.1759L242.651 59.684L242.955 59.9677L242.079 62.4746L243.316 64.7614L243.321 64.7585Z" fill="#009933"/>
<path fill-rule="evenodd" clip-rule="evenodd" d="M279.122 59.0588L281 49.9809H273.821L275.835 40.4342H264.963L263.735 46.2554C266.457 46.8633 269.077 48.2557 270.4 50.612C271.726 52.9741 271.258 55.588 269.019 57.1251C267.185 58.3814 264.518 58.5233 262.955 56.7546C261.092 54.6472 261.826 52.0449 261.08 49.9809H258.388L256.441 59.0588H261.072C258.053 73.1792 257.717 74.6584 257.717 76.4068C257.717 81.7186 261.476 85.5512 267.179 85.5512C270.264 85.5512 273.622 84.4078 275.97 82.5262L274.763 74.5918C274.026 75.2634 272.414 76.071 270.871 76.071C269.664 76.071 268.993 75.466 268.993 73.9868C268.993 73.1792 269.196 72.3745 271.946 59.0588H279.125H279.122Z" fill="#009933"/>
<path fill-rule="evenodd" clip-rule="evenodd" d="M100.442 3.66547C114.847 3.66547 127.891 9.51569 137.332 18.9756C141.033 22.6838 144.182 26.9477 146.641 31.6313L144.22 32.9079C141.888 28.4703 138.907 24.4293 135.399 20.9151C126.455 11.953 114.096 6.40676 100.445 6.40676C86.7947 6.40676 74.4355 11.9501 65.4911 20.9151C62.0734 24.3395 59.1526 28.2677 56.85 32.5721L54.5099 31.1421C56.9309 26.6524 59.9846 22.5564 63.5583 18.9756C72.9996 9.51569 86.0406 3.66547 100.445 3.66547H100.442Z" fill="url(#paint0_linear_583_3241)"/>
<path d="M51.5371 29.3271L50.3728 28.615L51.7942 26.279L67.9929 36.1789L66.5715 38.515L51.5371 29.3271Z" fill="#EA251D"/>
<path fill-rule="evenodd" clip-rule="evenodd" d="M99.0758 1.37284V0.000747681H101.812V17.3314H99.0758V1.37284Z" fill="#FFFF00"/>
<path d="M148.989 26.9911L150.154 26.279L151.575 28.615L135.376 38.515L133.955 36.1789L148.989 26.9911Z" fill="#009933"/>
<path fill-rule="evenodd" clip-rule="evenodd" d="M102.814 27.0693C103.063 27.1358 103.334 27.2893 103.43 27.6251C103.623 28.3111 102.45 32.8413 104.917 33.0295C107.385 33.2205 107.48 30.9279 106.937 29.4198C106.394 27.9116 106.137 25.8911 106.524 25.373C106.911 24.8548 106.671 24.2874 106.486 24.0674C106.301 23.8445 104.637 21.5954 104.071 21.6967C103.505 21.7951 103.626 22.4551 104.022 22.6896C104.418 22.924 105.345 23.3901 105.437 25.2282C105.53 27.0635 106.492 30.155 106.434 30.8845C106.379 31.6169 105.827 32.5519 104.938 32.355C104.048 32.1582 104.002 30.0219 104.039 28.6614C104.074 27.4166 103.863 26.6119 102.817 26.3282V27.0693H102.814ZM96.8715 21.5838H102.291C102.58 21.5838 102.817 21.8211 102.817 22.1106V26.3311V27.0722V33.3016C102.817 33.3161 102.817 33.3305 102.814 33.3479H102.982C103.227 33.3479 103.43 33.5505 103.43 33.7966C103.43 34.0455 103.227 34.2453 102.982 34.2453H96.1811C95.9355 34.2453 95.7333 34.0426 95.7333 33.7966C95.7333 33.5505 95.9355 33.3479 96.1811 33.3479H96.3486C96.3486 33.3334 96.3457 33.319 96.3457 33.3016V22.1135C96.3457 21.824 96.5826 21.5867 96.8715 21.5867V21.5838ZM97.4291 22.5622H101.734C101.901 22.5622 102.037 22.6982 102.037 22.8661V26.0156C102.037 26.1835 101.901 26.3195 101.734 26.3195H97.4291C97.2616 26.3195 97.1258 26.1835 97.1258 26.0156V22.8661C97.1258 22.6982 97.2616 22.5622 97.4291 22.5622Z" fill="black"/>
<path fill-rule="evenodd" clip-rule="evenodd" d="M74.6232 22.3074L99.4861 59.5277L98.4172 52.0014L74.6232 22.3074Z" fill="#EA251D"/>
<path d="M58.9503 42.5705H55.9515V44.6084H59.4732V45.8647H54.3886V38.2631H59.4617V39.5339H55.9515V41.346H58.9503V42.5705Z" fill="#EA251D"/>
<path d="M146.071 42.7586H143.07V45.8647H141.507V38.2631H146.447V39.5339H143.07V41.4965H146.071V42.7586Z" fill="#009933"/>
<path fill-rule="evenodd" clip-rule="evenodd" d="M101.598 51.4717C105.657 51.4717 108.948 54.7688 108.948 58.8359C108.948 62.903 105.657 66.2 101.598 66.2C97.5389 66.2 94.2483 62.903 94.2483 58.8359C94.2483 54.7688 97.5389 51.4717 101.598 51.4717Z" fill="#EA251D"/>
<path d="M248.594 50.2299C249.206 49.7146 250.561 49.1357 250.619 49.1125L258.766 45.6591L258.561 45.1728L249.686 48.9331C248.744 49.3325 247.331 50.5396 247.057 50.777L247.045 50.7857L239.771 57.3885L240.259 57.8459C242.25 56.0164 248.085 50.6525 248.591 50.227L248.594 50.2299Z" fill="black"/>
<path d="M250.732 49.3788C250.717 49.3846 249.36 49.9636 248.779 50.4499C248.285 50.8667 242.466 56.2104 240.473 58.0456L241.681 59.1775L248.776 52.7396C249.594 52.0304 250.411 51.4601 250.7 51.3357L259.575 47.5754L258.879 45.9254L250.732 49.3788Z" fill="black"/>
<path d="M241.88 59.4756L239.505 57.2727L241.036 56.0367L242.992 58.1875L241.88 59.4756Z" fill="black"/>
<path d="M249.022 52.4009L248.068 53.938L247.366 53.5415L249.022 52.4009Z" fill="black"/>
<path d="M247.924 53.3707L246.97 54.9078L246.268 54.5112L247.924 53.3707Z" fill="black"/>
<path d="M246.849 54.3288L245.896 55.8659L245.196 55.4693L246.849 54.3288Z" fill="black"/>
<path d="M245.806 55.2754L244.85 56.8125L244.151 56.4159L245.806 55.2754Z" fill="black"/>
<path d="M238.329 72.1053C238.329 72.1053 239.687 72.5684 239.959 73.8074C239.959 73.8074 237.734 74.12 237.257 74.7018C236.781 75.2808 236.853 75.7555 237.073 76.5747C237.217 77.1074 238.693 81.901 238.693 81.901C238.693 81.901 238.199 82.3207 237.555 82.2802L235.648 75.9524C235.648 75.9524 234.553 72.9332 238.329 72.1082V72.1053Z" fill="black"/>
<path d="M242.455 72.4526L240.854 84.1791C240.675 84.8681 240.002 84.7291 240.002 84.7291L232.213 84.2515L231.503 83.2615L231.895 80.3581L237.151 82.4423C238.939 82.7694 239.511 81.1107 239.511 81.1107L240.25 74.3747C240.378 72.6669 238.558 71.9287 238.558 71.9287L242.455 72.4497V72.4526Z" fill="black"/>
<path d="M243.015 65.7108C243.015 65.7108 243.466 66.3795 243.235 67.5693L242.507 72.0966L234.813 71.1384C234.813 71.1384 232.982 70.9705 232.615 73.0779L231.124 84.2863L227.897 83.7912L230.211 70.9705L227.504 83.7305L226.759 83.6176L229.301 71.3324C229.301 71.3324 229.564 70.4669 228.888 70.0587C228.215 69.6506 226.961 69.364 227.605 68.209C228.249 67.054 232.779 59.0269 232.779 59.0269C232.779 59.0269 233.06 58.3525 233.715 58.5667C234.455 58.8098 235.651 59.1312 235.651 59.1312C235.651 59.1312 235.845 59.2585 236.579 58.6969C237.561 57.9443 238.791 57.0441 238.791 57.0441L242.12 60.1675L241.296 62.5324L243.012 65.708L243.015 65.7108Z" fill="black"/>
<path d="M263.776 56.0251C261.488 53.4401 263.937 49.4512 259.956 46.9965C259.956 46.9965 266.962 46.7215 269.444 51.1475C271.929 55.5736 266.064 58.6072 263.776 56.0222V56.0251ZM266.148 56.3609C266.148 56.3609 264.33 56.3059 263.692 53.6196C263.134 51.2807 263.591 50.062 261.918 48.1833C261.918 48.1833 262.851 49.3239 263.039 51.5875C263.264 54.3086 263.894 56.3754 266.148 56.3609Z" fill="#009933"/>
<path d="M65.7337 92.3335C64.6388 92.3335 63.7057 93.1238 63.4428 94.3367L63.2376 95.3006H62.1138L61.8654 96.528H62.9892L61.6747 102.859H63.0903L64.4048 96.528H66.1844L66.4473 95.3006H64.6677L64.8295 94.5249C64.9306 94.0125 65.3986 93.5609 65.9533 93.5609C66.1729 93.5609 66.4358 93.6333 66.5658 93.8099L67.2216 92.9183C66.8576 92.5825 66.3462 92.3335 65.7337 92.3335ZM73.1181 95.3006L72.1271 100.051C71.8642 100.986 70.7549 101.776 69.6021 101.776C68.799 101.776 68.3194 101.278 68.3194 100.445C68.3194 100.036 68.4061 99.744 69.3248 95.2977H67.9092C66.976 99.8309 66.8576 100.196 66.8576 100.751C66.8576 102.097 67.7618 103.032 69.2208 103.032C70.1828 103.032 71.1622 102.549 71.7458 101.848L71.5407 102.856H72.9852L74.5626 95.2977H73.1181V95.3006ZM79.1734 99.5848C81.4355 99.6138 82.7789 98.6498 82.7789 97.2025C82.7789 95.9317 81.5251 95.127 80.0373 95.127C77.6163 95.127 75.3975 97.3211 75.3975 99.8772C75.3975 101.765 76.6831 103.035 78.535 103.035C79.6299 103.035 81.0455 102.613 81.8487 101.909L81.06 100.885C80.5053 101.382 79.5432 101.747 78.6823 101.747C77.4863 101.747 76.7842 101.018 76.7842 99.8019V99.5819H79.1763L79.1734 99.5848ZM79.9477 96.3977C80.7653 96.3977 81.3633 96.7769 81.3633 97.3762C81.3633 98.0333 80.6497 98.4298 79.393 98.4298H77.0587C77.5267 97.2748 78.5899 96.3977 79.9477 96.3977ZM83.3625 102.859H84.7926L86.9073 92.6404H85.4773L83.3625 102.859ZM100.988 95.1241C99.8935 95.1241 98.813 95.6943 98.3045 96.6438C98.0272 95.7088 97.2385 95.1241 96.1435 95.1241C95.2248 95.1241 94.3783 95.5467 93.8525 96.2791L94.0577 95.3006H92.6131L91.0357 102.859H92.4802L93.503 97.9898C93.7948 97.0404 94.7712 96.3804 95.7362 96.3804C96.5682 96.3804 96.9467 96.8927 96.9611 97.7119C96.9611 97.9898 96.8744 98.3256 95.924 102.859H97.3396C97.952 99.9206 98.2149 98.6932 98.3305 98.0767C98.579 97.0838 99.5988 96.3804 100.593 96.3804C101.41 96.3804 101.818 96.8783 101.818 97.7119C101.818 97.9898 101.731 98.3256 100.78 102.859H102.196C103.172 98.1953 103.277 97.8596 103.277 97.3906C103.277 96.0446 102.387 95.1241 100.986 95.1241H100.988ZM107.818 103.032C110.401 103.032 112.663 100.913 112.663 98.3835C112.663 96.6004 111.19 95.1241 109.395 95.1241C106.842 95.1241 104.594 97.243 104.594 99.773C104.594 101.556 106.038 103.032 107.818 103.032ZM108.009 101.776C106.928 101.776 106.024 100.841 106.024 99.7151C106.024 97.9319 107.497 96.3804 109.205 96.3804C110.314 96.3804 111.233 97.3154 111.233 98.4559C111.233 100.239 109.745 101.776 108.009 101.776ZM116.312 96.6727L116.604 95.2977H115.159L113.585 102.856H115.029L115.904 98.6296C116.312 97.3125 117.641 96.3775 119.218 96.3775L119.394 95.1212C118.094 95.1212 116.988 95.7059 116.315 96.6698L116.312 96.6727ZM123.491 99.5819C125.753 99.6109 127.096 98.6469 127.096 97.1996C127.096 95.9288 125.843 95.1241 124.355 95.1241C121.934 95.1241 119.715 97.3183 119.715 99.8743C119.715 101.762 121.001 103.032 122.852 103.032C123.947 103.032 125.363 102.61 126.166 101.906L125.377 100.882C124.823 101.38 123.861 101.744 123 101.744C121.804 101.744 121.102 101.015 121.102 99.799V99.579H123.494L123.491 99.5819ZM124.265 96.3948C125.083 96.3948 125.681 96.774 125.681 97.3733C125.681 98.0304 124.967 98.4269 123.71 98.4269H121.376C121.844 97.2719 122.907 96.3948 124.265 96.3948ZM128.058 104.902C129.021 104.011 129.795 103.163 129.795 102.155C129.795 101.527 129.474 101.087 128.905 101.087C128.365 101.087 127.839 101.542 127.839 102.17C127.839 102.653 128.174 102.975 128.613 102.975C128.35 103.443 127.972 103.924 127.46 104.364L128.058 104.905V104.902ZM138.71 103.032C140.533 103.032 141.992 101.848 141.992 100.372C141.992 99.3648 141.247 98.8959 139.759 98.4559C138.678 98.0622 138.3 97.8132 138.3 97.5064C138.3 96.8493 139.014 96.3659 139.993 96.3659C140.649 96.3659 141.351 96.6148 141.934 97.0519L142.723 96.0272C141.963 95.4714 141.001 95.1212 140.039 95.1212C138.202 95.1212 136.873 96.2038 136.873 97.738C136.873 98.7164 137.633 99.1564 139.164 99.5935C140.23 99.9148 140.565 100.207 140.565 100.572C140.565 101.229 139.762 101.785 138.756 101.785C138.011 101.785 137.15 101.478 136.48 100.908L135.648 101.857C136.437 102.587 137.56 103.027 138.713 103.027L138.71 103.032ZM148.923 95.1241C147.799 95.1241 146.765 95.6943 146.019 96.5859L146.282 95.3006H144.852L142.766 105.374H144.197L145.029 101.353C145.436 102.346 146.329 103.035 147.363 103.035C149.784 103.035 151.769 100.769 151.769 98.1375C151.769 96.4701 150.515 95.127 148.923 95.127V95.1241ZM147.363 101.776C146.297 101.776 145.421 100.928 145.421 99.8888C145.421 98.0014 146.852 96.3804 148.559 96.3804C149.535 96.3804 150.324 97.2285 150.324 98.2677C150.324 100.17 148.966 101.776 147.363 101.776ZM156.746 99.5819C159.008 99.6109 160.352 98.6469 160.352 97.1996C160.352 95.9288 159.098 95.1241 157.61 95.1241C155.189 95.1241 152.97 97.3183 152.97 99.8743C152.97 101.762 154.256 103.032 156.108 103.032C157.203 103.032 158.618 102.61 159.422 101.906L158.633 100.882C158.078 101.38 157.116 101.744 156.255 101.744C155.059 101.744 154.357 101.015 154.357 99.799V99.579H156.749L156.746 99.5819ZM157.521 96.3948C158.338 96.3948 158.936 96.774 158.936 97.3733C158.936 98.0304 158.223 98.4269 156.966 98.4269H154.632C155.1 97.2719 156.163 96.3948 157.521 96.3948ZM166.26 95.1241C165.298 95.1241 164.318 95.6075 163.735 96.308L163.94 95.3006H162.496L160.921 102.859H162.366L163.356 98.1085C163.619 97.1735 164.729 96.3833 165.881 96.3833C166.685 96.3833 167.167 96.8811 167.167 97.7148C167.167 98.123 167.08 98.4153 166.162 102.862H167.577C168.51 98.3285 168.629 97.9638 168.629 97.408C168.629 96.0619 167.725 95.127 166.266 95.127L166.26 95.1241ZM177.611 92.6375L176.75 96.774C176.343 95.7956 175.464 95.1212 174.43 95.1212C172.009 95.1212 170.024 97.3733 170.024 100.005C170.024 101.686 171.278 103.03 172.87 103.03C173.994 103.03 175.014 102.474 175.759 101.597L175.496 102.853H176.926L179.041 92.6346H177.611V92.6375ZM173.234 101.776C172.258 101.776 171.469 100.928 171.469 99.8888C171.469 97.9869 172.827 96.3804 174.416 96.3804C175.496 96.3804 176.371 97.2285 176.371 98.2677C176.371 98.4732 176.357 98.6614 176.328 98.8525L176.256 99.1882C175.877 100.65 174.65 101.776 173.237 101.776H173.234ZM183.302 102.859H184.732L186.847 92.6404H185.417L183.302 102.859ZM190.903 99.5848C193.165 99.6138 194.509 98.6498 194.509 97.2025C194.509 95.9317 193.255 95.127 191.767 95.127C189.346 95.127 187.127 97.3211 187.127 99.8772C187.127 101.765 188.413 103.035 190.265 103.035C191.36 103.035 192.775 102.613 193.578 101.909L192.79 100.885C192.235 101.382 191.273 101.747 190.412 101.747C189.216 101.747 188.514 101.018 188.514 99.8019V99.5819H190.906L190.903 99.5848ZM191.677 96.3977C192.495 96.3977 193.093 96.7769 193.093 97.3762C193.093 98.0333 192.379 98.4298 191.123 98.4298H188.788C189.256 97.2748 190.32 96.3977 191.677 96.3977ZM197.848 103.035C199.671 103.035 201.13 101.851 201.13 100.375C201.13 99.3677 200.385 98.8988 198.897 98.4588C197.817 98.0651 197.438 97.8161 197.438 97.5093C197.438 96.8522 198.152 96.3688 199.131 96.3688C199.787 96.3688 200.489 96.6177 201.073 97.0548L201.861 96.0301C201.101 95.4743 200.139 95.1241 199.177 95.1241C197.34 95.1241 196.011 96.2067 196.011 97.7409C196.011 98.7193 196.771 99.1593 198.302 99.5964C199.368 99.9177 199.703 100.21 199.703 100.575C199.703 101.232 198.9 101.788 197.895 101.788C197.149 101.788 196.288 101.481 195.618 100.911L194.786 101.86C195.575 102.59 196.699 103.03 197.851 103.03L197.848 103.035ZM205.114 103.035C206.937 103.035 208.396 101.851 208.396 100.375C208.396 99.3677 207.651 98.8988 206.163 98.4588C205.082 98.0651 204.704 97.8161 204.704 97.5093C204.704 96.8522 205.418 96.3688 206.397 96.3688C207.053 96.3688 207.755 96.6177 208.338 97.0548L209.127 96.0301C208.367 95.4743 207.405 95.1241 206.443 95.1241C204.606 95.1241 203.277 96.2067 203.277 97.7409C203.277 98.7193 204.037 99.1593 205.568 99.5964C206.634 99.9177 206.969 100.21 206.969 100.575C206.969 101.232 206.166 101.788 205.161 101.788C204.415 101.788 203.554 101.481 202.884 100.911L202.052 101.86C202.841 102.59 203.964 103.03 205.117 103.03L205.114 103.035ZM210.572 103.035C211.112 103.035 211.623 102.523 211.623 101.953C211.623 101.484 211.274 101.09 210.777 101.09C210.236 101.09 209.696 101.53 209.696 102.173C209.696 102.656 210.046 103.035 210.572 103.035ZM214.423 103.035C214.963 103.035 215.474 102.523 215.474 101.953C215.474 101.484 215.125 101.09 214.628 101.09C214.088 101.09 213.547 101.53 213.547 102.173C213.547 102.656 213.897 103.035 214.423 103.035ZM218.274 103.035C218.814 103.035 219.325 102.523 219.325 101.953C219.325 101.484 218.976 101.09 218.479 101.09C217.939 101.09 217.398 101.53 217.398 102.173C217.398 102.656 217.748 103.035 218.274 103.035Z" fill="#333333"/>
</g>
<defs>
<linearGradient id="paint0_linear_583_3241" x1="61.0304" y1="34.1266" x2="143.554" y2="24.5506" gradientUnits="userSpaceOnUse">
<stop stop-color="#EA251D"/>
<stop offset="0.388235" stop-color="#FFFF00"/>
<stop offset="1" stop-color="#6BDA35"/>
</linearGradient>
<clipPath id="clip0_583_3241">
<rect width="281" height="105.375" fill="white"/>
</clipPath>
</defs>
</svg>
