<svg width="88" height="33" viewBox="0 0 88 33" fill="none" xmlns="http://www.w3.org/2000/svg">
<g filter="url(#filter0_d_166_1893)">
<rect x="4.78107" y="5.34082" width="78.4378" height="22.7591" rx="2.91969" fill="#66BD50" fill-opacity="0.05" shape-rendering="crispEdges"/>
<rect x="5.28107" y="5.84082" width="77.4378" height="21.7591" rx="2.41969" stroke="#66BD50" stroke-opacity="0.2" shape-rendering="crispEdges"/>
<path d="M20.4852 15.0227C20.3143 14.6937 20.0771 14.4469 19.7734 14.2824C19.4697 14.1116 19.1186 14.0262 18.72 14.0262C18.2835 14.0262 17.8944 14.1243 17.5527 14.3204C17.2111 14.5165 16.9422 14.7949 16.7461 15.1555C16.5563 15.5161 16.4614 15.9337 16.4614 16.4082C16.4614 16.8827 16.5563 17.3034 16.7461 17.6704C16.9422 18.031 17.2111 18.3094 17.5527 18.5055C17.8944 18.7016 18.2835 18.7997 18.72 18.7997C19.3084 18.7997 19.7861 18.6352 20.153 18.3062C20.52 17.9772 20.7446 17.5312 20.8268 16.9681H18.3499V16.1045H21.9846V16.9491C21.915 17.4616 21.7315 17.9329 21.4342 18.3631C21.1431 18.7934 20.7604 19.1382 20.2859 19.3976C19.8177 19.6506 19.2957 19.7772 18.72 19.7772C18.1 19.7772 17.5338 19.6348 17.0213 19.3501C16.5088 19.0591 16.1008 18.6573 15.7971 18.1449C15.4997 17.6324 15.3511 17.0535 15.3511 16.4082C15.3511 15.7629 15.4997 15.184 15.7971 14.6715C16.1008 14.1591 16.5088 13.7605 17.0213 13.4758C17.5401 13.1848 18.1063 13.0393 18.72 13.0393C19.4223 13.0393 20.0455 13.2132 20.5895 13.5612C21.14 13.9028 21.5385 14.39 21.7853 15.0227H20.4852ZM25.3197 19.8056C24.8262 19.8056 24.3802 19.6949 23.9816 19.4735C23.5831 19.2457 23.2699 18.9294 23.0421 18.5245C22.8144 18.1132 22.7005 17.6387 22.7005 17.101C22.7005 16.5695 22.8175 16.0982 23.0516 15.687C23.2857 15.2757 23.6052 14.9594 24.0101 14.738C24.415 14.5165 24.8674 14.4058 25.3672 14.4058C25.867 14.4058 26.3193 14.5165 26.7242 14.738C27.1291 14.9594 27.4486 15.2757 27.6827 15.687C27.9168 16.0982 28.0339 16.5695 28.0339 17.101C28.0339 17.6324 27.9137 18.1038 27.6732 18.515C27.4328 18.9262 27.1038 19.2457 26.6863 19.4735C26.275 19.6949 25.8195 19.8056 25.3197 19.8056ZM25.3197 18.8661C25.5981 18.8661 25.8575 18.7997 26.0979 18.6668C26.3446 18.534 26.5439 18.3347 26.6958 18.069C26.8476 17.8032 26.9235 17.4806 26.9235 17.101C26.9235 16.7214 26.8508 16.4019 26.7053 16.1425C26.5597 15.8768 26.3668 15.6775 26.1264 15.5446C25.886 15.4118 25.6266 15.3453 25.3482 15.3453C25.0698 15.3453 24.8104 15.4118 24.57 15.5446C24.3359 15.6775 24.1493 15.8768 24.0101 16.1425C23.8709 16.4019 23.8013 16.7214 23.8013 17.101C23.8013 17.664 23.9437 18.1006 24.2284 18.4106C24.5194 18.7143 24.8832 18.8661 25.3197 18.8661ZM31.3714 19.8056C30.878 19.8056 30.4319 19.6949 30.0334 19.4735C29.6348 19.2457 29.3216 18.9294 29.0938 18.5245C28.8661 18.1132 28.7522 17.6387 28.7522 17.101C28.7522 16.5695 28.8693 16.0982 29.1033 15.687C29.3374 15.2757 29.6569 14.9594 30.0618 14.738C30.4667 14.5165 30.9191 14.4058 31.4189 14.4058C31.9187 14.4058 32.3711 14.5165 32.776 14.738C33.1809 14.9594 33.5004 15.2757 33.7345 15.687C33.9685 16.0982 34.0856 16.5695 34.0856 17.101C34.0856 17.6324 33.9654 18.1038 33.725 18.515C33.4846 18.9262 33.1556 19.2457 32.738 19.4735C32.3268 19.6949 31.8713 19.8056 31.3714 19.8056ZM31.3714 18.8661C31.6498 18.8661 31.9092 18.7997 32.1496 18.6668C32.3964 18.534 32.5957 18.3347 32.7475 18.069C32.8993 17.8032 32.9753 17.4806 32.9753 17.101C32.9753 16.7214 32.9025 16.4019 32.757 16.1425C32.6115 15.8768 32.4185 15.6775 32.1781 15.5446C31.9377 15.4118 31.6783 15.3453 31.3999 15.3453C31.1215 15.3453 30.8622 15.4118 30.6217 15.5446C30.3877 15.6775 30.201 15.8768 30.0618 16.1425C29.9226 16.4019 29.853 16.7214 29.853 17.101C29.853 17.664 29.9954 18.1006 30.2801 18.4106C30.5711 18.7143 30.9349 18.8661 31.3714 18.8661ZM34.7944 17.082C34.7944 16.5569 34.902 16.0919 35.1171 15.687C35.3385 15.2821 35.6359 14.9689 36.0092 14.7475C36.3888 14.5197 36.8095 14.4058 37.2713 14.4058C37.613 14.4058 37.9483 14.4817 38.2773 14.6336C38.6126 14.7791 38.8783 14.9752 39.0744 15.222V12.6976H40.1658V19.7202H39.0744V18.9325C38.8973 19.1856 38.6506 19.3944 38.3342 19.5589C38.0242 19.7234 37.6668 19.8056 37.2618 19.8056C36.8063 19.8056 36.3888 19.6917 36.0092 19.464C35.6359 19.2299 35.3385 18.9072 35.1171 18.496C34.902 18.0784 34.7944 17.6071 34.7944 17.082ZM39.0744 17.101C39.0744 16.7404 38.9985 16.4272 38.8467 16.1615C38.7012 15.8957 38.5082 15.6933 38.2678 15.5541C38.0274 15.4149 37.768 15.3453 37.4896 15.3453C37.2112 15.3453 36.9518 15.4149 36.7114 15.5541C36.471 15.687 36.2749 15.8863 36.123 16.152C35.9775 16.4114 35.9048 16.7214 35.9048 17.082C35.9048 17.4426 35.9775 17.7589 36.123 18.031C36.2749 18.303 36.471 18.5118 36.7114 18.6573C36.9582 18.7965 37.2176 18.8661 37.4896 18.8661C37.768 18.8661 38.0274 18.7965 38.2678 18.6573C38.5082 18.5181 38.7012 18.3157 38.8467 18.05C38.9985 17.7779 39.0744 17.4616 39.0744 17.101ZM45.1338 15.2599C45.3173 15.0195 45.5672 14.817 45.8835 14.6526C46.1998 14.4881 46.5573 14.4058 46.9559 14.4058C47.4114 14.4058 47.8258 14.5197 48.1991 14.7475C48.5787 14.9689 48.876 15.2821 49.0911 15.687C49.3062 16.0919 49.4138 16.5569 49.4138 17.082C49.4138 17.6071 49.3062 18.0784 49.0911 18.496C48.876 18.9072 48.5787 19.2299 48.1991 19.464C47.8258 19.6917 47.4114 19.8056 46.9559 19.8056C46.5573 19.8056 46.203 19.7265 45.893 19.5684C45.583 19.4039 45.3299 19.2014 45.1338 18.961V22.2066H44.0519V14.4912H45.1338V15.2599ZM48.313 17.082C48.313 16.7214 48.237 16.4114 48.0852 16.152C47.9397 15.8863 47.7436 15.687 47.4968 15.5541C47.2564 15.4149 46.997 15.3453 46.7186 15.3453C46.4466 15.3453 46.1872 15.4149 45.9405 15.5541C45.7 15.6933 45.5039 15.8957 45.3521 16.1615C45.2066 16.4272 45.1338 16.7404 45.1338 17.101C45.1338 17.4616 45.2066 17.7779 45.3521 18.05C45.5039 18.3157 45.7 18.5181 45.9405 18.6573C46.1872 18.7965 46.4466 18.8661 46.7186 18.8661C46.997 18.8661 47.2564 18.7965 47.4968 18.6573C47.7436 18.5118 47.9397 18.303 48.0852 18.031C48.237 17.7589 48.313 17.4426 48.313 17.082ZM55.2192 14.4912V19.7202H54.1373V19.1034C53.9665 19.3185 53.7419 19.4893 53.4635 19.6158C53.1915 19.736 52.9004 19.7961 52.5904 19.7961C52.1792 19.7961 51.8091 19.7107 51.4801 19.5399C51.1574 19.3691 50.9012 19.116 50.7114 18.7807C50.5279 18.4454 50.4362 18.0405 50.4362 17.566V14.4912H51.5086V17.4047C51.5086 17.8728 51.6256 18.2334 51.8597 18.4865C52.0938 18.7333 52.4133 18.8566 52.8182 18.8566C53.2231 18.8566 53.5426 18.7333 53.7767 18.4865C54.0171 18.2334 54.1373 17.8728 54.1373 17.4047V14.4912H55.2192ZM62.9764 14.4058C63.3876 14.4058 63.7546 14.4912 64.0772 14.662C64.4062 14.8329 64.6625 15.0859 64.8459 15.4212C65.0357 15.7566 65.1306 16.1615 65.1306 16.636V19.7202H64.0583V16.7973C64.0583 16.3291 63.9412 15.9717 63.7071 15.7249C63.4731 15.4719 63.1536 15.3453 62.7487 15.3453C62.3437 15.3453 62.0211 15.4719 61.7807 15.7249C61.5466 15.9717 61.4295 16.3291 61.4295 16.7973V19.7202H60.3572V16.7973C60.3572 16.3291 60.2401 15.9717 60.006 15.7249C59.772 15.4719 59.4525 15.3453 59.0475 15.3453C58.6426 15.3453 58.32 15.4719 58.0796 15.7249C57.8455 15.9717 57.7284 16.3291 57.7284 16.7973V19.7202H56.6466V14.4912H57.7284V15.0891C57.9056 14.874 58.1302 14.7063 58.4022 14.5861C58.6743 14.4659 58.9653 14.4058 59.2753 14.4058C59.6929 14.4058 60.0661 14.4944 60.3951 14.6715C60.7241 14.8487 60.9772 15.1049 61.1543 15.4402C61.3125 15.1239 61.5592 14.874 61.8945 14.6905C62.2299 14.5007 62.5905 14.4058 62.9764 14.4058ZM67.5891 15.2599C67.7726 15.0195 68.0225 14.817 68.3389 14.6526C68.6552 14.4881 69.0126 14.4058 69.4112 14.4058C69.8667 14.4058 70.2811 14.5197 70.6544 14.7475C71.034 14.9689 71.3314 15.2821 71.5465 15.687C71.7616 16.0919 71.8691 16.5569 71.8691 17.082C71.8691 17.6071 71.7616 18.0784 71.5465 18.496C71.3314 18.9072 71.034 19.2299 70.6544 19.464C70.2811 19.6917 69.8667 19.8056 69.4112 19.8056C69.0126 19.8056 68.6583 19.7265 68.3483 19.5684C68.0383 19.4039 67.7853 19.2014 67.5891 18.961V22.2066H66.5073V14.4912H67.5891V15.2599ZM70.7683 17.082C70.7683 16.7214 70.6924 16.4114 70.5405 16.152C70.395 15.8863 70.1989 15.687 69.9522 15.5541C69.7117 15.4149 69.4523 15.3453 69.174 15.3453C68.9019 15.3453 68.6425 15.4149 68.3958 15.5541C68.1554 15.6933 67.9593 15.8957 67.8074 16.1615C67.6619 16.4272 67.5891 16.7404 67.5891 17.101C67.5891 17.4616 67.6619 17.7779 67.8074 18.05C67.9593 18.3157 68.1554 18.5181 68.3958 18.6573C68.6425 18.7965 68.9019 18.8661 69.174 18.8661C69.4523 18.8661 69.7117 18.7965 69.9522 18.6573C70.1989 18.5118 70.395 18.303 70.5405 18.031C70.6924 17.7589 70.7683 17.4426 70.7683 17.082Z" fill="#66BD50"/>
</g>
<defs>
<filter id="filter0_d_166_1893" x="0.301995" y="0.861749" width="87.3959" height="31.7174" filterUnits="userSpaceOnUse" color-interpolation-filters="sRGB">
<feFlood flood-opacity="0" result="BackgroundImageFix"/>
<feColorMatrix in="SourceAlpha" type="matrix" values="0 0 0 0 0 0 0 0 0 0 0 0 0 0 0 0 0 0 127 0" result="hardAlpha"/>
<feOffset/>
<feGaussianBlur stdDeviation="2.23954"/>
<feComposite in2="hardAlpha" operator="out"/>
<feColorMatrix type="matrix" values="0 0 0 0 0 0 0 0 0 0.2 0 0 0 0 0.6 0 0 0 0.03 0"/>
<feBlend mode="normal" in2="BackgroundImageFix" result="effect1_dropShadow_166_1893"/>
<feBlend mode="normal" in="SourceGraphic" in2="effect1_dropShadow_166_1893" result="shape"/>
</filter>
</defs>
</svg>
