<svg width="25" height="24" viewBox="0 0 25 24" fill="none" xmlns="http://www.w3.org/2000/svg">
<g clip-path="url(#clip0_1693_35080)">
<path d="M24.0078 12.2247C24.0078 11.2414 23.9295 10.5239 23.7598 9.77979H12.7295V14.2178H19.2041C19.0736 15.3207 18.3687 16.9816 16.8022 18.0977L16.7802 18.2463L20.2678 20.9965L20.5095 21.021C22.7285 18.9349 24.0078 15.8654 24.0078 12.2247Z" fill="#4285F4"/>
<path d="M12.7296 23.9173C15.9016 23.9173 18.5645 22.8543 20.5095 21.0207L16.8023 18.0973C15.8102 18.8016 14.4787 19.2932 12.7296 19.2932C9.6228 19.2932 6.98598 17.2071 6.04603 14.3237L5.90825 14.3356L2.2818 17.1925L2.23438 17.3267C4.1663 21.2332 8.13462 23.9173 12.7296 23.9173Z" fill="#34A853"/>
<path d="M6.04621 14.3238C5.7982 13.5797 5.65466 12.7824 5.65466 11.9586C5.65466 11.1347 5.7982 10.3375 6.03316 9.59342L6.02659 9.43494L2.3547 6.53223L2.23457 6.59039C1.43833 8.21149 0.981445 10.0319 0.981445 11.9586C0.981445 13.8853 1.43833 15.7056 2.23457 17.3267L6.04621 14.3238Z" fill="#FBBC05"/>
<path d="M12.7295 4.62403C14.9356 4.62403 16.4237 5.59401 17.2722 6.40461L20.5878 3.10928C18.5515 1.1826 15.9015 0 12.7295 0C8.13462 0 4.1663 2.68406 2.23438 6.59056L6.03297 9.59359C6.98597 6.7102 9.62279 4.62403 12.7295 4.62403Z" fill="#EB4335"/>
</g>
<defs>
<clipPath id="clip0_1693_35080">
<rect width="23.04" height="24" fill="white" transform="translate(0.980469)"/>
</clipPath>
</defs>
</svg>
