<svg width="12" height="17" viewBox="0 0 12 17" fill="none" xmlns="http://www.w3.org/2000/svg">
<g clip-path="url(#clip0_2075_2611)">
<path d="M3.30859 12.5933C3.8061 13.2199 4.25893 13.8799 4.6638 14.5685C5.00945 15.2162 5.15355 15.6554 5.40616 16.4357C5.56108 16.8669 5.70109 16.9956 6.00212 16.9956C6.33016 16.9956 6.47898 16.7767 6.59397 16.4381C6.83275 15.7011 7.02011 15.1387 7.3157 14.6072C7.89573 13.5812 8.61648 12.6695 9.32467 11.7932C9.51639 11.5452 10.756 10.1004 11.314 8.96037C11.314 8.96037 11.9999 7.70807 11.9999 5.95911C11.9999 4.32312 11.3235 3.18848 11.3235 3.18848L9.37605 3.70385L8.19339 6.78196L7.9008 7.20641L7.8423 7.2833L7.76448 7.37956L7.62789 7.5333L7.4327 7.72613L6.37956 8.574L3.74659 10.0763L3.30859 12.5933Z" fill="#34A853"/>
<path d="M0.591309 8.74974C1.23392 10.2002 2.47311 11.4752 3.31151 12.5942L7.76468 7.38145C7.76468 7.38145 7.13731 8.19226 5.99928 8.19226C4.73164 8.19226 3.70756 7.19195 3.70756 5.93061C3.70756 5.06565 4.23415 4.47144 4.23415 4.47144L1.21123 5.27187L0.591309 8.74974Z" fill="#FBBC04"/>
<path d="M7.81442 0.268066C9.29342 0.739295 10.5593 1.72858 11.325 3.18739L7.76604 7.37847C7.76604 7.37847 8.29264 6.77351 8.29264 5.91392C8.29264 4.62322 7.19281 3.65899 6.00467 3.65899C4.88112 3.65899 4.23584 4.46846 4.23584 4.46846V1.82813L7.81442 0.268066Z" fill="#4285F4"/>
<path d="M1.40674 2.1199C2.2901 1.07549 3.84447 0 5.98741 0C7.0271 0 7.81038 0.26973 7.81038 0.26973L4.23213 4.47077H1.69689L1.40674 2.1199Z" fill="#1A73E8"/>
<path d="M0.591188 8.74973C0.591188 8.74973 0 7.60569 0 5.9483C0 4.38185 0.616219 3.01258 1.40695 2.11987L4.23436 4.47111L0.591188 8.74973Z" fill="#EA4335"/>
</g>
<defs>
<clipPath id="clip0_2075_2611">
<rect width="12" height="17" fill="white"/>
</clipPath>
</defs>
</svg>
