<svg width="24" height="25" viewBox="0 0 24 25" fill="none" xmlns="http://www.w3.org/2000/svg">
<path fill-rule="evenodd" clip-rule="evenodd" d="M2.63972 0.831055H14.4126C15.0998 0.831055 15.6619 1.38957 15.6619 2.07223V2.73457C16.5248 3.60953 19.1655 6.28685 19.2932 6.40649C19.446 6.54955 19.4322 6.81188 19.4322 7.33366C19.4322 7.85543 19.4322 10.4682 19.4322 11.7421C19.4322 13.0161 19.5662 14.989 20.6142 16.0102C21.6622 17.0315 23.2508 16.9519 23.7514 18.5766C24.252 20.2013 24.2166 22.7374 21.5198 23.1684C18.8231 23.5995 18.2891 21.7029 17.9821 20.9403C17.6966 20.2311 16.8297 19.3098 15.6619 19.403V21.1088H16.2989C16.7891 21.1088 17.1901 21.5072 17.1901 21.9942V24.8311H3.05176e-05V21.9942C3.05176e-05 21.5072 0.401107 21.1088 0.891239 21.1088H1.39038V2.07223C1.39038 1.38957 1.95257 0.831055 2.63972 0.831055ZM15.6619 4.85278V18.7021C15.9821 18.7244 16.8155 18.8116 17.2872 19.1309C17.8797 19.5321 18.4284 20.1033 19.2842 21.6119C20.1401 23.1206 23.17 22.843 23.2709 20.4913C23.3719 18.1396 21.7583 17.4707 21.056 17.2112C20.3536 16.9517 18.6494 15.4711 18.7362 12.7786C18.7362 12.7786 18.0195 12.8715 17.9355 12.165C17.8515 11.4585 18.0449 10.3451 17.7967 10.1473C17.7967 10.1473 16.6923 9.04755 16.5492 8.9279C16.4061 8.80826 16.4538 8.16252 16.4538 8.01792C16.4538 7.87333 16.4538 5.64958 16.4538 5.64958L15.6619 4.85278ZM17.2124 6.46883L17.9071 7.16128C17.9286 7.18279 17.9462 7.23553 17.9462 7.27855V9.23913C17.9462 9.28215 17.9286 9.2997 17.9071 9.27818L17.2124 8.58574C17.1909 8.56423 17.1733 8.51149 17.1733 8.46847V6.50789C17.1733 6.46486 17.1909 6.44738 17.2124 6.46883ZM8.52619 18.8139C8.52619 18.8139 6.1965 18.8292 5.8664 16.6636C5.53637 14.498 8.10137 13.285 8.52619 10.6395C8.95101 13.285 11.516 14.498 11.186 16.6636C10.8559 18.8292 8.52619 18.8139 8.52619 18.8139ZM3.74465 2.36402H13.3077C13.798 2.36402 14.1991 2.76254 14.1991 3.24959V6.7163C14.1991 7.20335 13.798 7.60187 13.3077 7.60187H3.74465C3.25439 7.60187 2.85326 7.20335 2.85326 6.7163V3.24959C2.85326 2.76254 3.25439 2.36402 3.74465 2.36402Z" fill="#009933"/>
</svg>
