<svg width="36" height="40" viewBox="0 0 36 40" fill="none" xmlns="http://www.w3.org/2000/svg">
<path d="M23.3333 16.6667H22.381V14.7619C22.381 12.1333 20.2476 10 17.619 10C14.9905 10 12.8571 12.1333 12.8571 14.7619V16.6667H11.9048C10.8571 16.6667 10 17.5238 10 18.5714V28.0952C10 29.1429 10.8571 30 11.9048 30H23.3333C24.381 30 25.2381 29.1429 25.2381 28.0952V18.5714C25.2381 17.5238 24.381 16.6667 23.3333 16.6667ZM17.619 25.2381C16.5714 25.2381 15.7143 24.381 15.7143 23.3333C15.7143 22.2857 16.5714 21.4286 17.619 21.4286C18.6667 21.4286 19.5238 22.2857 19.5238 23.3333C19.5238 24.381 18.6667 25.2381 17.619 25.2381ZM20.5714 16.6667H14.6667V14.7619C14.6667 13.1333 15.9905 11.8095 17.619 11.8095C19.2476 11.8095 20.5714 13.1333 20.5714 14.7619V16.6667Z" fill="#009933"/>
</svg>
