<svg width="40" height="40" viewBox="0 0 40 40" fill="none" xmlns="http://www.w3.org/2000/svg">
<path d="M20 10C14.48 10 10 14.48 10 20C10 25.52 14.48 30 20 30C25.52 30 30 25.52 30 20C30 14.48 25.52 10 20 10ZM21.41 26.09V28H18.74V26.07C17.03 25.71 15.58 24.61 15.47 22.67H17.43C17.53 23.72 18.25 24.54 20.08 24.54C22.04 24.54 22.48 23.56 22.48 22.95C22.48 22.12 22.04 21.34 19.81 20.81C17.33 20.21 15.63 19.19 15.63 17.14C15.63 15.42 17.02 14.3 18.74 13.93V12H21.41V13.95C23.27 14.4 24.2 15.81 24.26 17.34H22.3C22.25 16.23 21.66 15.47 20.08 15.47C18.58 15.47 17.68 16.15 17.68 17.11C17.68 17.95 18.33 18.5 20.35 19.02C22.37 19.54 24.53 20.41 24.53 22.93C24.52 24.76 23.15 25.76 21.41 26.09Z" fill="#009933"/>
</svg>
