<svg width="84" height="33" viewBox="0 0 84 33" fill="none" xmlns="http://www.w3.org/2000/svg">
<g filter="url(#filter0_d_25_4098)">
<rect x="5.28107" y="5.43115" width="73.4378" height="22.7591" rx="2.91969" fill="#DE4841" fill-opacity="0.05" shape-rendering="crispEdges"/>
<rect x="5.78107" y="5.93115" width="72.4378" height="21.7591" rx="2.41969" stroke="#DE4841" stroke-opacity="0.2" shape-rendering="crispEdges"/>
<path d="M17.2935 16.252H18.4893C19.3339 16.252 19.7135 15.844 19.7135 15.1797C19.7135 14.4964 19.3339 14.0978 18.4893 14.0978H17.2935V16.252ZM20.8238 15.1797C20.8238 16.1192 20.207 17.1346 18.4893 17.1346H17.2935V19.8108H16.2117V13.2152H18.4893C20.0551 13.2152 20.8238 14.1073 20.8238 15.1797ZM26.8379 17.1916C26.8379 18.8333 25.6232 19.8962 24.1238 19.8962C22.6338 19.8962 21.5045 18.8333 21.5045 17.1916C21.5045 15.5498 22.6813 14.4964 24.1712 14.4964C25.6611 14.4964 26.8379 15.5498 26.8379 17.1916ZM22.6054 17.1916C22.6054 18.3778 23.3076 18.9567 24.1238 18.9567C24.9304 18.9567 25.7276 18.3778 25.7276 17.1916C25.7276 16.0053 24.9589 15.4359 24.1522 15.4359C23.3361 15.4359 22.6054 16.0053 22.6054 17.1916ZM32.8896 17.1916C32.8896 18.8333 31.6749 19.8962 30.1755 19.8962C28.6856 19.8962 27.5562 18.8333 27.5562 17.1916C27.5562 15.5498 28.733 14.4964 30.2229 14.4964C31.7129 14.4964 32.8896 15.5498 32.8896 17.1916ZM28.6571 17.1916C28.6571 18.3778 29.3593 18.9567 30.1755 18.9567C30.9821 18.9567 31.7793 18.3778 31.7793 17.1916C31.7793 16.0053 31.0106 15.4359 30.204 15.4359C29.3878 15.4359 28.6571 16.0053 28.6571 17.1916ZM35.041 17.0587V19.8108H33.9591V14.5818H35.041V15.341C35.3446 14.8191 35.8666 14.4964 36.6068 14.4964V15.6162H36.3316C35.5344 15.6162 35.041 15.9484 35.041 17.0587ZM41.1483 15.3505C41.4804 14.914 42.1163 14.4964 42.9704 14.4964C44.3464 14.4964 45.4283 15.5593 45.4283 17.1726C45.4283 18.7859 44.3464 19.8962 42.9704 19.8962C42.1068 19.8962 41.4899 19.4597 41.1483 19.0516V22.2972H40.0664V14.5818H41.1483V15.3505ZM44.3274 17.1726C44.3274 16.0433 43.5493 15.4359 42.7331 15.4359C41.9265 15.4359 41.1483 16.0717 41.1483 17.1916C41.1483 18.3209 41.9265 18.9567 42.7331 18.9567C43.5493 18.9567 44.3274 18.3019 44.3274 17.1726ZM51.2336 14.5818V19.8108H50.1518V19.1845C49.8101 19.6305 49.2218 19.8867 48.6049 19.8867C47.3807 19.8867 46.4507 19.118 46.4507 17.6566V14.5818H47.5231V17.4952C47.5231 18.4537 48.045 18.9472 48.8327 18.9472C49.6298 18.9472 50.1518 18.4537 50.1518 17.4952V14.5818H51.2336ZM60.0728 19.8108V16.8879C60.0728 15.9294 59.5508 15.4359 58.7631 15.4359C57.966 15.4359 57.444 15.9294 57.444 16.8879V19.8108H56.3717V16.8879C56.3717 15.9294 55.8497 15.4359 55.062 15.4359C54.2649 15.4359 53.7429 15.9294 53.7429 16.8879V19.8108H52.6611V14.5818H53.7429V15.1797C54.0941 14.7526 54.6635 14.4964 55.2898 14.4964C56.1154 14.4964 56.8082 14.8475 57.1688 15.5308C57.4915 14.895 58.2317 14.4964 58.9909 14.4964C60.2151 14.4964 61.1451 15.2651 61.1451 16.7265V19.8108H60.0728ZM63.6036 15.3505C63.9358 14.914 64.5716 14.4964 65.4257 14.4964C66.8018 14.4964 67.8836 15.5593 67.8836 17.1726C67.8836 18.7859 66.8018 19.8962 65.4257 19.8962C64.5621 19.8962 63.9453 19.4597 63.6036 19.0516V22.2972H62.5218V14.5818H63.6036V15.3505ZM66.7828 17.1726C66.7828 16.0433 66.0046 15.4359 65.1885 15.4359C64.3818 15.4359 63.6036 16.0717 63.6036 17.1916C63.6036 18.3209 64.3818 18.9567 65.1885 18.9567C66.0046 18.9567 66.7828 18.3019 66.7828 17.1726Z" fill="#DE4841"/>
</g>
<defs>
<filter id="filter0_d_25_4098" x="0.801995" y="0.952081" width="82.3959" height="31.7172" filterUnits="userSpaceOnUse" color-interpolation-filters="sRGB">
<feFlood flood-opacity="0" result="BackgroundImageFix"/>
<feColorMatrix in="SourceAlpha" type="matrix" values="0 0 0 0 0 0 0 0 0 0 0 0 0 0 0 0 0 0 127 0" result="hardAlpha"/>
<feOffset/>
<feGaussianBlur stdDeviation="2.23954"/>
<feComposite in2="hardAlpha" operator="out"/>
<feColorMatrix type="matrix" values="0 0 0 0 0 0 0 0 0 0.2 0 0 0 0 0.6 0 0 0 0.03 0"/>
<feBlend mode="normal" in2="BackgroundImageFix" result="effect1_dropShadow_25_4098"/>
<feBlend mode="normal" in="SourceGraphic" in2="effect1_dropShadow_25_4098" result="shape"/>
</filter>
</defs>
</svg>
