<svg width="36" height="40" viewBox="0 0 36 40" fill="none" xmlns="http://www.w3.org/2000/svg">
<path d="M21.8182 16.3636C19.8091 16.3636 18.1818 17.9909 18.1818 20C18.1818 22.0091 19.8091 23.6364 21.8182 23.6364C23.8273 23.6364 25.4545 22.0091 25.4545 20C25.4545 17.9909 23.8273 16.3636 21.8182 16.3636ZM19.5455 20C19.5455 18.7455 20.5636 17.7273 21.8182 17.7273C22.2 17.7273 22.5455 17.8273 22.8636 17.9909L19.8091 21.0455C19.6455 20.7273 19.5455 20.3818 19.5455 20ZM21.8182 22.2727C21.4364 22.2727 21.0909 22.1727 20.7727 22.0091L23.8273 18.9545C23.9909 19.2727 24.0909 19.6182 24.0909 20C24.0909 21.2545 23.0727 22.2727 21.8182 22.2727ZM20.9091 25.4545H11.8182V14.5455H20.9091V15.4545H22.7273V11.8182C22.7273 10.8182 21.9091 10 20.9091 10H11.8182C10.8182 10 10 10.8182 10 11.8182V28.1818C10 29.1818 10.8182 30 11.8182 30H20.9091C21.9091 30 22.7273 29.1818 22.7273 28.1818V24.5455H20.9091V25.4545Z" fill="#009933"/>
</svg>
