<svg width="55" height="55" viewBox="0 0 55 55" fill="none" xmlns="http://www.w3.org/2000/svg">
<rect x="0.5" y="0.660156" width="54" height="54" rx="27" fill="#4568F2" fill-opacity="0.05"/>
<path fill-rule="evenodd" clip-rule="evenodd" d="M37.2872 26.1992C37.1518 26.3307 36.9681 26.4059 36.7747 26.4059C36.059 26.4059 35.4787 26.9696 35.4787 27.6555C35.4787 28.346 36.0522 28.9069 36.7611 28.9144C37.1605 28.9182 37.5 29.1888 37.5 29.5768V31.9866C37.5 34.0151 35.8075 35.6602 33.7186 35.6602H30.5658C30.2398 35.6602 29.9758 35.4037 29.9758 35.0871V33.0577C29.9758 32.6631 29.6567 32.3531 29.2505 32.3531C28.854 32.3531 28.5251 32.6631 28.5251 33.0577V35.0871C28.5251 35.4037 28.2611 35.6602 27.9362 35.6602H21.2814C19.2021 35.6602 17.5 34.016 17.5 31.9866V29.5768C17.5 29.1888 17.8395 28.9182 18.2389 28.9144C18.9487 28.9069 19.5213 28.346 19.5213 27.6555C19.5213 26.9884 18.9603 26.4811 18.2253 26.4811C18.0319 26.4811 17.8482 26.4059 17.7128 26.2744C17.5774 26.1428 17.5 25.9643 17.5 25.7764V23.3431C17.5 21.3175 19.206 19.6602 21.2911 19.6602H27.9362C28.2611 19.6602 28.5251 19.9166 28.5251 20.2333V22.6384C28.5251 23.0236 28.854 23.3431 29.2505 23.3431C29.6567 23.3431 29.9758 23.0236 29.9758 22.6384V20.2333C29.9758 19.9166 30.2398 19.6602 30.5658 19.6602H33.7186C35.8075 19.6602 37.5 21.3043 37.5 23.3337V25.7013C37.5 25.8892 37.4226 26.0677 37.2872 26.1992ZM29.2505 30.5304C29.6567 30.5304 29.9758 30.2109 29.9758 29.8257V26.0677C29.9758 25.6825 29.6567 25.363 29.2505 25.363C28.854 25.363 28.5251 25.6825 28.5251 26.0677V29.8257C28.5251 30.2109 28.854 30.5304 29.2505 30.5304Z" fill="#960099"/>
</svg>
