<svg width="31" height="31" viewBox="0 0 31 31" fill="none" xmlns="http://www.w3.org/2000/svg">
<rect x="0.5" y="0.5" width="30" height="30" rx="15" fill="#F9F9F9"/>
<rect x="0.5" y="0.5" width="30" height="30" rx="15" stroke="#F3F3F3"/>
<path d="M21.145 9.85C19.695 8.4 17.705 7.5 15.495 7.5C11.075 7.5 7.505 11.08 7.505 15.5C7.505 19.92 11.075 23.5 15.495 23.5C19.225 23.5 22.335 20.95 23.225 17.5H21.145C20.325 19.83 18.105 21.5 15.495 21.5C12.185 21.5 9.495 18.81 9.495 15.5C9.495 12.19 12.185 9.5 15.495 9.5C17.155 9.5 18.635 10.19 19.715 11.28L16.495 14.5H23.495V7.5L21.145 9.85Z" fill="#009933"/>
</svg>
