<svg width="40" height="40" viewBox="0 0 40 40" fill="none" xmlns="http://www.w3.org/2000/svg">
<path fill-rule="evenodd" clip-rule="evenodd" d="M12 10H28C29.1 10 30 10.9 30 12V24C30 25.1 29.1 26 28 26H14L10 30V12C10 10.9 10.9 10 12 10ZM15 20C16.1046 20 17 19.1046 17 18C17 16.8954 16.1046 16 15 16C13.8954 16 13 16.8954 13 18C13 19.1046 13.8954 20 15 20ZM20 20C21.1046 20 22 19.1046 22 18C22 16.8954 21.1046 16 20 16C18.8954 16 18 16.8954 18 18C18 19.1046 18.8954 20 20 20ZM27 18C27 19.1046 26.1046 20 25 20C23.8954 20 23 19.1046 23 18C23 16.8954 23.8954 16 25 16C26.1046 16 27 16.8954 27 18Z" fill="#009933"/>
</svg>
