<svg width="21" height="22" viewBox="0 0 21 22" fill="none" xmlns="http://www.w3.org/2000/svg">
<path d="M18.6214 11.0842L19.8911 12.6713C20.014 12.8283 20.1096 12.999 20.1778 13.1833C20.2461 13.3676 20.2802 13.5622 20.2802 13.767C20.2802 13.9718 20.2495 14.1663 20.1881 14.3507C20.1266 14.535 20.0379 14.7022 19.9219 14.8524C19.8058 15.0026 19.6659 15.1323 19.502 15.2415C19.3382 15.3507 19.1607 15.4327 18.9696 15.4873L17.0138 16.03C17.0274 16.3781 17.0445 16.7297 17.065 17.0847C17.0854 17.4397 17.0991 17.7946 17.1059 18.1496C17.1059 18.3954 17.0615 18.6241 16.9728 18.8357C16.884 19.0473 16.7578 19.2316 16.5939 19.3886C16.4301 19.5456 16.2424 19.6719 16.0307 19.7675C15.8191 19.8631 15.587 19.9109 15.3344 19.9109C15.1228 19.9109 14.9146 19.8733 14.7098 19.7982L12.8154 19.0814L11.6993 20.771C11.5355 21.0236 11.3238 21.2181 11.0644 21.3547C10.805 21.4912 10.5217 21.5629 10.2145 21.5697C9.91417 21.5697 9.63428 21.5014 9.37488 21.3649C9.11547 21.2284 8.90043 21.0304 8.72977 20.771L7.61363 19.0814L5.71927 19.7982C5.51448 19.8733 5.30627 19.9109 5.09465 19.9109C4.84889 19.9109 4.6202 19.8665 4.40858 19.7777C4.19696 19.689 4.00923 19.5627 3.84539 19.3989C3.68156 19.235 3.55527 19.0473 3.46652 18.8357C3.37778 18.6241 3.32999 18.3954 3.32317 18.1496C3.32317 17.7946 3.33341 17.4397 3.35389 17.0847C3.37437 16.7297 3.39484 16.3781 3.41532 16.03L1.45953 15.4873C1.26156 15.4327 1.08407 15.3507 0.927058 15.2415C0.770048 15.1323 0.633517 15.0026 0.517466 14.8524C0.401415 14.7022 0.312671 14.535 0.251232 14.3507C0.189793 14.1663 0.155661 13.9718 0.148834 13.767C0.148834 13.569 0.182967 13.3779 0.251232 13.1936C0.319497 13.0092 0.415069 12.8352 0.537946 12.6713L1.80768 11.0842L0.537946 9.497C0.278538 9.17616 0.148834 8.81094 0.148834 8.40135C0.148834 8.19655 0.179554 8.002 0.240992 7.81768C0.302431 7.63336 0.391176 7.46611 0.507227 7.31593C0.623277 7.16575 0.759808 7.03604 0.916818 6.92682C1.07383 6.81759 1.25473 6.73568 1.45953 6.68106L3.41532 6.13835C3.40167 5.7902 3.3846 5.43864 3.36413 5.08366C3.34365 4.72868 3.32999 4.3737 3.32317 4.01872C3.32317 3.77296 3.36754 3.54428 3.45628 3.33265C3.54503 3.12103 3.67132 2.93672 3.83516 2.77971C3.99899 2.6227 4.18672 2.49641 4.39834 2.40083C4.60997 2.30526 4.84207 2.25748 5.09465 2.25748C5.30627 2.25748 5.51448 2.29502 5.71927 2.37012L7.61363 3.0869L8.72977 1.39734C8.89361 1.14475 9.10523 0.950199 9.36464 0.813668C9.62404 0.677138 9.90734 0.605459 10.2145 0.598633C10.5149 0.598633 10.7948 0.666898 11.0542 0.803428C11.3136 0.939959 11.5286 1.13793 11.6993 1.39734L12.8154 3.0869L14.7098 2.37012C14.9146 2.29502 15.1228 2.25748 15.3344 2.25748C15.5802 2.25748 15.8089 2.30185 16.0205 2.39059C16.2321 2.47934 16.4198 2.60563 16.5837 2.76947C16.7475 2.9333 16.8738 3.12103 16.9626 3.33265C17.0513 3.54428 17.0991 3.77296 17.1059 4.01872C17.1059 4.3737 17.0957 4.72868 17.0752 5.08366C17.0547 5.43864 17.0342 5.7902 17.0138 6.13835L18.9696 6.68106C19.1607 6.73568 19.3382 6.81759 19.502 6.92682C19.6659 7.03604 19.8024 7.16575 19.9116 7.31593C20.0208 7.46611 20.1096 7.63336 20.1778 7.81768C20.2461 8.002 20.2802 8.19655 20.2802 8.40135C20.2802 8.81094 20.1505 9.17616 19.8911 9.497L18.6214 11.0842Z" fill="#4ADE80"/>
<path d="M8.99857 9.17972V8.08951H11.179V15.7314H9.97347V9.17972H8.99857Z" fill="white"/>
</svg>
