<svg width="40" height="40" viewBox="0 0 40 40" fill="none" xmlns="http://www.w3.org/2000/svg">
<path d="M28 14.5H25.82C25.93 14.19 26 13.85 26 13.5C26 11.84 24.66 10.5 23 10.5C21.95 10.5 21.04 11.04 20.5 11.85L20 12.52L19.5 11.84C18.96 11.04 18.05 10.5 17 10.5C15.34 10.5 14 11.84 14 13.5C14 13.85 14.07 14.19 14.18 14.5H12C10.89 14.5 10.01 15.39 10.01 16.5L10 27.5C10 28.61 10.89 29.5 12 29.5H28C29.11 29.5 30 28.61 30 27.5V16.5C30 15.39 29.11 14.5 28 14.5ZM23 12.5C23.55 12.5 24 12.95 24 13.5C24 14.05 23.55 14.5 23 14.5C22.45 14.5 22 14.05 22 13.5C22 12.95 22.45 12.5 23 12.5ZM17 12.5C17.55 12.5 18 12.95 18 13.5C18 14.05 17.55 14.5 17 14.5C16.45 14.5 16 14.05 16 13.5C16 12.95 16.45 12.5 17 12.5ZM28 27.5H12V25.5H28V27.5ZM28 22.5H12V16.5H17.08L15 19.33L16.62 20.5L19 17.26L20 15.9L21 17.26L23.38 20.5L25 19.33L22.92 16.5H28V22.5Z" fill="#009933"/>
</svg>
