<svg width="21" height="22" viewBox="0 0 21 22" fill="none" xmlns="http://www.w3.org/2000/svg">
<path d="M18.7785 11.0842L20.0483 12.6713C20.1711 12.8283 20.2667 12.999 20.335 13.1833C20.4032 13.3676 20.4374 13.5622 20.4374 13.767C20.4374 13.9718 20.4067 14.1663 20.3452 14.3507C20.2838 14.535 20.195 14.7022 20.079 14.8524C19.9629 15.0026 19.823 15.1323 19.6592 15.2415C19.4953 15.3507 19.3178 15.4327 19.1267 15.4873L17.1709 16.03C17.1845 16.3781 17.2016 16.7297 17.2221 17.0847C17.2426 17.4397 17.2562 17.7946 17.263 18.1496C17.263 18.3954 17.2187 18.6241 17.1299 18.8357C17.0412 19.0473 16.9149 19.2316 16.7511 19.3886C16.5872 19.5456 16.3995 19.6719 16.1879 19.7675C15.9762 19.8631 15.7441 19.9109 15.4916 19.9109C15.2799 19.9109 15.0717 19.8733 14.8669 19.7982L12.9726 19.0814L11.8564 20.771C11.6926 21.0236 11.481 21.2181 11.2216 21.3547C10.9622 21.4912 10.6789 21.5629 10.3717 21.5697C10.0713 21.5697 9.79142 21.5014 9.53201 21.3649C9.2726 21.2284 9.05757 21.0304 8.88691 20.771L7.77077 19.0814L5.87641 19.7982C5.67161 19.8733 5.46341 19.9109 5.25178 19.9109C5.00603 19.9109 4.77734 19.8665 4.56572 19.7777C4.3541 19.689 4.16637 19.5627 4.00253 19.3989C3.83869 19.235 3.7124 19.0473 3.62366 18.8357C3.53491 18.6241 3.48713 18.3954 3.4803 18.1496C3.4803 17.7946 3.49054 17.4397 3.51102 17.0847C3.5315 16.7297 3.55198 16.3781 3.57246 16.03L1.61666 15.4873C1.41869 15.4327 1.2412 15.3507 1.08419 15.2415C0.927183 15.1323 0.790652 15.0026 0.674601 14.8524C0.558551 14.7022 0.469806 14.535 0.408367 14.3507C0.346928 14.1663 0.312796 13.9718 0.305969 13.767C0.305969 13.569 0.340102 13.3779 0.408367 13.1936C0.476632 13.0092 0.572204 12.8352 0.695081 12.6713L1.96481 11.0842L0.695081 9.497C0.435673 9.17616 0.305969 8.81094 0.305969 8.40135C0.305969 8.19655 0.336689 8.002 0.398127 7.81768C0.459566 7.63336 0.548311 7.46611 0.664362 7.31593C0.780412 7.16575 0.916943 7.03604 1.07395 6.92682C1.23096 6.81759 1.41187 6.73568 1.61666 6.68106L3.57246 6.13835C3.55881 5.7902 3.54174 5.43864 3.52126 5.08366C3.50078 4.72868 3.48713 4.3737 3.4803 4.01872C3.4803 3.77296 3.52467 3.54428 3.61342 3.33265C3.70216 3.12103 3.82845 2.93672 3.99229 2.77971C4.15613 2.6227 4.34386 2.49641 4.55548 2.40083C4.7671 2.30526 4.9992 2.25748 5.25178 2.25748C5.46341 2.25748 5.67161 2.29502 5.87641 2.37012L7.77077 3.0869L8.88691 1.39734C9.05074 1.14475 9.26236 0.950199 9.52177 0.813668C9.78118 0.677138 10.0645 0.605459 10.3717 0.598633C10.672 0.598633 10.9519 0.666898 11.2113 0.803428C11.4707 0.939959 11.6858 1.13793 11.8564 1.39734L12.9726 3.0869L14.8669 2.37012C15.0717 2.29502 15.2799 2.25748 15.4916 2.25748C15.7373 2.25748 15.966 2.30185 16.1776 2.39059C16.3892 2.47934 16.577 2.60563 16.7408 2.76947C16.9047 2.9333 17.0309 3.12103 17.1197 3.33265C17.2084 3.54428 17.2562 3.77296 17.263 4.01872C17.263 4.3737 17.2528 4.72868 17.2323 5.08366C17.2118 5.43864 17.1914 5.7902 17.1709 6.13835L19.1267 6.68106C19.3178 6.73568 19.4953 6.81759 19.6592 6.92682C19.823 7.03604 19.9595 7.16575 20.0687 7.31593C20.178 7.46611 20.2667 7.63336 20.335 7.81768C20.4032 8.002 20.4374 8.19655 20.4374 8.40135C20.4374 8.81094 20.3077 9.17616 20.0483 9.497L18.7785 11.0842Z" fill="#4568F2"/>
<path d="M7.76528 9.97641C7.80721 9.32648 8.0553 8.81981 8.50956 8.45641C8.9708 8.09301 9.55783 7.91131 10.2707 7.91131C10.7599 7.91131 11.1827 7.99866 11.5391 8.17338C11.8955 8.34809 12.1645 8.5857 12.3462 8.8862C12.5279 9.18671 12.6188 9.52565 12.6188 9.90303C12.6188 10.3363 12.5035 10.7067 12.2729 11.0142C12.0422 11.3217 11.7662 11.5279 11.4447 11.6327V11.6746C11.857 11.8004 12.1785 12.031 12.4091 12.3665C12.6398 12.6949 12.7551 13.1177 12.7551 13.6349C12.7551 14.0472 12.6607 14.4141 12.472 14.7356C12.2833 15.0571 12.0038 15.3121 11.6334 15.5008C11.263 15.6825 10.8193 15.7734 10.3021 15.7734C9.54735 15.7734 8.92537 15.5812 8.43618 15.1968C7.95397 14.8055 7.69539 14.2464 7.66045 13.5196H8.81356C8.84151 13.89 8.98477 14.194 9.24335 14.4316C9.50192 14.6622 9.85135 14.7775 10.2916 14.7775C10.7179 14.7775 11.0464 14.6622 11.277 14.4316C11.5076 14.194 11.6229 13.89 11.6229 13.5196C11.6229 13.0304 11.4657 12.6845 11.1512 12.4818C10.8437 12.2721 10.3685 12.1673 9.72556 12.1673H9.453V11.1819H9.73604C10.3021 11.1749 10.7319 11.0806 11.0254 10.8989C11.3259 10.7172 11.4762 10.4307 11.4762 10.0393C11.4762 9.70386 11.3679 9.4383 11.1512 9.24262C10.9346 9.03995 10.6271 8.93862 10.2287 8.93862C9.83737 8.93862 9.53337 9.03995 9.31673 9.24262C9.10008 9.4383 8.9708 9.68289 8.92887 9.97641H7.76528Z" fill="white"/>
</svg>
