<svg width="24" height="24" viewBox="0 0 24 24" fill="none" xmlns="http://www.w3.org/2000/svg">
<path d="M21.6 5.23115H18.984C19.116 4.85915 19.2 4.45115 19.2 4.03115C19.2 2.03915 17.592 0.431152 15.6 0.431152C14.34 0.431152 13.248 1.07915 12.6 2.05115L12 2.85515L11.4 2.03915C10.752 1.07915 9.66 0.431152 8.4 0.431152C6.408 0.431152 4.8 2.03915 4.8 4.03115C4.8 4.45115 4.884 4.85915 5.016 5.23115H2.4C1.068 5.23115 0.012 6.29915 0.012 7.63115L0 20.8312C0 22.1632 1.068 23.2312 2.4 23.2312H21.6C22.932 23.2312 24 22.1632 24 20.8312V7.63115C24 6.29915 22.932 5.23115 21.6 5.23115ZM15.6 2.83115C16.26 2.83115 16.8 3.37115 16.8 4.03115C16.8 4.69115 16.26 5.23115 15.6 5.23115C14.94 5.23115 14.4 4.69115 14.4 4.03115C14.4 3.37115 14.94 2.83115 15.6 2.83115ZM8.4 2.83115C9.06 2.83115 9.6 3.37115 9.6 4.03115C9.6 4.69115 9.06 5.23115 8.4 5.23115C7.74 5.23115 7.2 4.69115 7.2 4.03115C7.2 3.37115 7.74 2.83115 8.4 2.83115ZM21.6 20.8312H2.4V18.4312H21.6V20.8312ZM21.6 14.8312H2.4V7.63115H8.496L6 11.0272L7.944 12.4312L10.8 8.54315L12 6.91115L13.2 8.54315L16.056 12.4312L18 11.0272L15.504 7.63115H21.6V14.8312Z" fill="#9C9C9C"/>
</svg>
