<svg width="21" height="22" viewBox="0 0 21 22" fill="none" xmlns="http://www.w3.org/2000/svg">
<path d="M19.1999 11.0842L20.4697 12.6713C20.5925 12.8283 20.6881 12.999 20.7564 13.1833C20.8246 13.3676 20.8588 13.5622 20.8588 13.767C20.8588 13.9718 20.828 14.1663 20.7666 14.3507C20.7052 14.535 20.6164 14.7022 20.5004 14.8524C20.3843 15.0026 20.2444 15.1323 20.0805 15.2415C19.9167 15.3507 19.7392 15.4327 19.5481 15.4873L17.5923 16.03C17.6059 16.3781 17.623 16.7297 17.6435 17.0847C17.664 17.4397 17.6776 17.7946 17.6844 18.1496C17.6844 18.3954 17.6401 18.6241 17.5513 18.8357C17.4626 19.0473 17.3363 19.2316 17.1724 19.3886C17.0086 19.5456 16.8209 19.6719 16.6093 19.7675C16.3976 19.8631 16.1655 19.9109 15.913 19.9109C15.7013 19.9109 15.4931 19.8733 15.2883 19.7982L13.394 19.0814L12.2778 20.771C12.114 21.0236 11.9024 21.2181 11.643 21.3547C11.3836 21.4912 11.1003 21.5629 10.7931 21.5697C10.4927 21.5697 10.2128 21.5014 9.9534 21.3649C9.69399 21.2284 9.47896 21.0304 9.30829 20.771L8.19216 19.0814L6.2978 19.7982C6.093 19.8733 5.88479 19.9109 5.67317 19.9109C5.42742 19.9109 5.19873 19.8665 4.9871 19.7777C4.77548 19.689 4.58775 19.5627 4.42392 19.3989C4.26008 19.235 4.13379 19.0473 4.04504 18.8357C3.9563 18.6241 3.90851 18.3954 3.90169 18.1496C3.90169 17.7946 3.91193 17.4397 3.93241 17.0847C3.95289 16.7297 3.97337 16.3781 3.99385 16.03L2.03805 15.4873C1.84008 15.4327 1.66259 15.3507 1.50558 15.2415C1.34857 15.1323 1.21204 15.0026 1.09599 14.8524C0.979937 14.7022 0.891192 14.535 0.829754 14.3507C0.768315 14.1663 0.734182 13.9718 0.727356 13.767C0.727356 13.569 0.761489 13.3779 0.829754 13.1936C0.898019 13.0092 0.99359 12.8352 1.11647 12.6713L2.3862 11.0842L1.11647 9.497C0.85706 9.17616 0.727356 8.81094 0.727356 8.40135C0.727356 8.19655 0.758075 8.002 0.819514 7.81768C0.880953 7.63336 0.969697 7.46611 1.08575 7.31593C1.2018 7.16575 1.33833 7.03604 1.49534 6.92682C1.65235 6.81759 1.83325 6.73568 2.03805 6.68106L3.99385 6.13835C3.98019 5.7902 3.96313 5.43864 3.94265 5.08366C3.92217 4.72868 3.90851 4.3737 3.90169 4.01872C3.90169 3.77297 3.94606 3.54428 4.03481 3.33265C4.12355 3.12103 4.24984 2.93672 4.41368 2.77971C4.57751 2.6227 4.76524 2.49641 4.97686 2.40083C5.18849 2.30526 5.42059 2.25748 5.67317 2.25748C5.88479 2.25748 6.093 2.29502 6.2978 2.37012L8.19216 3.0869L9.30829 1.39734C9.47213 1.14475 9.68375 0.950199 9.94316 0.813668C10.2026 0.677138 10.4859 0.605459 10.7931 0.598633C11.0934 0.598633 11.3733 0.666898 11.6327 0.803428C11.8921 0.939959 12.1072 1.13793 12.2778 1.39734L13.394 3.0869L15.2883 2.37012C15.4931 2.29502 15.7013 2.25748 15.913 2.25748C16.1587 2.25748 16.3874 2.30185 16.599 2.39059C16.8106 2.47934 16.9984 2.60563 17.1622 2.76947C17.326 2.9333 17.4523 3.12103 17.5411 3.33265C17.6298 3.54428 17.6776 3.77297 17.6844 4.01872C17.6844 4.3737 17.6742 4.72868 17.6537 5.08366C17.6332 5.43864 17.6128 5.7902 17.5923 6.13835L19.5481 6.68106C19.7392 6.73568 19.9167 6.81759 20.0805 6.92682C20.2444 7.03604 20.3809 7.16575 20.4901 7.31593C20.5994 7.46611 20.6881 7.63336 20.7564 7.81768C20.8246 8.002 20.8588 8.19655 20.8588 8.40135C20.8588 8.81094 20.7291 9.17616 20.4697 9.497L19.1999 11.0842Z" fill="#EF934D"/>
<path d="M9.8286 14.1066C10.4995 13.5266 11.0271 13.0514 11.4115 12.681C11.8028 12.3036 12.1278 11.9122 12.3864 11.5069C12.645 11.1016 12.7743 10.6962 12.7743 10.2909C12.7743 9.87158 12.6729 9.54312 12.4703 9.30551C12.2746 9.0679 11.9636 8.9491 11.5373 8.9491C11.125 8.9491 10.8035 9.08188 10.5729 9.34745C10.3492 9.60602 10.2304 9.95545 10.2165 10.3957H9.06335C9.08432 9.59903 9.32193 8.99103 9.77618 8.57172C10.2374 8.14542 10.821 7.93227 11.5268 7.93227C12.2885 7.93227 12.8826 8.14193 13.3089 8.56124C13.7422 8.98055 13.9588 9.53963 13.9588 10.2385C13.9588 10.7417 13.8295 11.2274 13.5709 11.6956C13.3194 12.1568 13.0154 12.5726 12.6589 12.943C12.3095 13.3064 11.8623 13.7292 11.3171 14.2114L10.8454 14.6308H14.1685V15.6266H9.07384V14.7565L9.8286 14.1066Z" fill="white"/>
</svg>
