<svg width="45" height="45" viewBox="0 0 45 45" fill="none" xmlns="http://www.w3.org/2000/svg">
<rect width="45" height="45" rx="22.5" fill="#F7F7F7"/>
<path d="M32.4265 32.4264L27.7391 27.7307L32.4265 32.4264ZM30.3367 21.4551C30.3367 23.8106 29.4009 26.0697 27.7353 27.7353C26.0697 29.4009 23.8106 30.3367 21.4551 30.3367C19.0996 30.3367 16.8405 29.4009 15.1749 27.7353C13.5093 26.0697 12.5735 23.8106 12.5735 21.4551C12.5735 19.0995 13.5093 16.8405 15.1749 15.1748C16.8405 13.5092 19.0996 12.5735 21.4551 12.5735C23.8106 12.5735 26.0697 13.5092 27.7353 15.1748C29.4009 16.8405 30.3367 19.0995 30.3367 21.4551V21.4551Z" stroke="#009933" stroke-width="2" stroke-linecap="round"/>
</svg>
