<svg width="24" height="25" viewBox="0 0 24 25" fill="none" xmlns="http://www.w3.org/2000/svg">
<path d="M20.925 14.0061C20.975 13.6311 21 13.2436 21 12.8311C21 12.4311 20.975 12.0311 20.9125 11.6561L23.45 9.68105C23.675 9.50605 23.7375 9.16855 23.6 8.91855L21.2 4.76855C21.05 4.49355 20.7375 4.40605 20.4625 4.49355L17.475 5.69355C16.85 5.21855 16.1875 4.81855 15.45 4.51855L15 1.34355C14.95 1.04355 14.7 0.831055 14.4 0.831055H9.60001C9.30001 0.831055 9.06251 1.04355 9.01251 1.34355L8.56251 4.51855C7.82501 4.81855 7.15001 5.23105 6.53751 5.69355L3.55001 4.49355C3.27501 4.39355 2.96251 4.49355 2.81252 4.76855L0.425015 8.91855C0.275015 9.18105 0.325015 9.50605 0.575015 9.68105L3.11251 11.6561C3.05001 12.0311 3.00002 12.4436 3.00002 12.8311C3.00002 13.2186 3.02501 13.6311 3.08751 14.0061L0.550015 15.9811C0.325015 16.1561 0.262515 16.4936 0.400015 16.7436L2.80001 20.8936C2.95001 21.1686 3.26251 21.2561 3.53751 21.1686L6.52501 19.9686C7.15001 20.4436 7.81251 20.8436 8.55001 21.1436L9.00001 24.3186C9.06251 24.6186 9.30001 24.8311 9.60001 24.8311H14.4C14.7 24.8311 14.95 24.6186 14.9875 24.3186L15.4375 21.1436C16.175 20.8436 16.85 20.4436 17.4625 19.9686L20.45 21.1686C20.725 21.2686 21.0375 21.1686 21.1875 20.8936L23.5875 16.7436C23.7375 16.4686 23.675 16.1561 23.4375 15.9811L20.925 14.0061ZM12 17.3311C9.52501 17.3311 7.50001 15.3061 7.50001 12.8311C7.50001 10.3561 9.52501 8.33105 12 8.33105C14.475 8.33105 16.5 10.3561 16.5 12.8311C16.5 15.3061 14.475 17.3311 12 17.3311Z" fill="#9C9C9C"/>
</svg>
