<svg width="55" height="55" viewBox="0 0 55 55" fill="none" xmlns="http://www.w3.org/2000/svg">
<rect x="0.5" y="0.660156" width="54" height="54" rx="27" fill="#4568F2" fill-opacity="0.05"/>
<path fill-rule="evenodd" clip-rule="evenodd" d="M18.1397 15.6602H29.9126C30.5997 15.6602 31.1619 16.2187 31.1619 16.9013V17.5637C32.0247 18.4386 34.6655 21.116 34.7932 21.2356C34.946 21.3786 34.9322 21.641 34.9322 22.1628C34.9322 22.6845 34.9322 25.2973 34.9322 26.5712C34.9322 27.8452 35.0662 29.8181 36.1142 30.8393C37.1621 31.8606 38.7508 31.781 39.2514 33.4057C39.752 35.0304 39.7165 37.5665 37.0198 37.9975C34.3231 38.4286 33.7891 36.532 33.4821 35.7694C33.1965 35.0602 32.3297 34.1389 31.1619 34.2321V35.9379H31.7989C32.2891 35.9379 32.6901 36.3363 32.6901 36.8233V39.6602H15.5V36.8233C15.5 36.3363 15.9011 35.9379 16.3912 35.9379H16.8903V16.9013C16.8903 16.2187 17.4525 15.6602 18.1397 15.6602ZM31.1619 19.6819V33.5312C31.4821 33.5535 32.3155 33.6407 32.7872 33.96C33.3797 34.3612 33.9284 34.9324 34.7842 36.441C35.64 37.9497 38.67 37.6721 38.7709 35.3204C38.8718 32.9687 37.2583 32.2998 36.5559 32.0403C35.8536 31.7808 34.1493 30.3002 34.2361 27.6077C34.2361 27.6077 33.5195 27.7006 33.4355 26.9941C33.3515 26.2876 33.5449 25.1742 33.2967 24.9764C33.2967 24.9764 32.1922 23.8766 32.0491 23.757C31.9061 23.6374 31.9537 22.9916 31.9537 22.847C31.9537 22.7024 31.9537 20.4787 31.9537 20.4787L31.1619 19.6819ZM32.7124 21.2979L33.407 21.9904C33.4286 22.0119 33.4462 22.0646 33.4462 22.1077V24.0682C33.4462 24.1113 33.4286 24.1288 33.407 24.1073L32.7124 23.4148C32.6908 23.3933 32.6732 23.3406 32.6732 23.2976V21.337C32.6732 21.294 32.6909 21.2765 32.7124 21.2979ZM24.0262 33.643C24.0262 33.643 21.6965 33.6583 21.3664 31.4927C21.0363 29.3271 23.6013 28.1141 24.0262 25.4686C24.451 28.1141 27.016 29.3271 26.6859 31.4927C26.3559 33.6583 24.0262 33.643 24.0262 33.643ZM19.2446 17.1931H28.8077C29.298 17.1931 29.6991 17.5916 29.6991 18.0787V21.5454C29.6991 22.0325 29.298 22.431 28.8077 22.431H19.2446C18.7544 22.431 18.3532 22.0325 18.3532 21.5454V18.0787C18.3532 17.5916 18.7544 17.1931 19.2446 17.1931Z" fill="#4568F2"/>
</svg>
