<svg width="113" height="31" viewBox="0 0 113 31" fill="none" xmlns="http://www.w3.org/2000/svg">
<rect x="0.5" y="0.5" width="112" height="30" rx="5.5" fill="#F9F9F9"/>
<rect x="0.5" y="0.5" width="112" height="30" rx="5.5" stroke="#F3F3F3"/>
<path d="M19.436 10.27L15.782 20H13.934L10.266 10.27H11.974L14.858 18.362L17.756 10.27H19.436ZM21.5827 11.264C21.2934 11.264 21.0507 11.166 20.8547 10.97C20.6587 10.774 20.5607 10.5313 20.5607 10.242C20.5607 9.95267 20.6587 9.71 20.8547 9.514C21.0507 9.318 21.2934 9.22 21.5827 9.22C21.8627 9.22 22.1007 9.318 22.2967 9.514C22.4927 9.71 22.5907 9.95267 22.5907 10.242C22.5907 10.5313 22.4927 10.774 22.2967 10.97C22.1007 11.166 21.8627 11.264 21.5827 11.264ZM22.3667 12.286V20H20.7707V12.286H22.3667ZM31.5321 15.954C31.5321 16.2433 31.5134 16.5047 31.4761 16.738H25.5821C25.6288 17.354 25.8574 17.8487 26.2681 18.222C26.6788 18.5953 27.1828 18.782 27.7801 18.782C28.6388 18.782 29.2454 18.4227 29.6001 17.704H31.3221C31.0888 18.4133 30.6641 18.9967 30.0481 19.454C29.4414 19.902 28.6854 20.126 27.7801 20.126C27.0428 20.126 26.3801 19.9627 25.7921 19.636C25.2134 19.3 24.7561 18.8333 24.4201 18.236C24.0934 17.6293 23.9301 16.9293 23.9301 16.136C23.9301 15.3427 24.0888 14.6473 24.4061 14.05C24.7328 13.4433 25.1854 12.9767 25.7641 12.65C26.3521 12.3233 27.0241 12.16 27.7801 12.16C28.5081 12.16 29.1568 12.3187 29.7261 12.636C30.2954 12.9533 30.7388 13.4013 31.0561 13.98C31.3734 14.5493 31.5321 15.2073 31.5321 15.954ZM29.8661 15.45C29.8568 14.862 29.6468 14.3907 29.2361 14.036C28.8254 13.6813 28.3168 13.504 27.7101 13.504C27.1594 13.504 26.6881 13.6813 26.2961 14.036C25.9041 14.3813 25.6708 14.8527 25.5961 15.45H29.8661ZM43.4627 12.286L41.0687 20H39.3887L37.8347 14.302L36.2807 20H34.6007L32.1927 12.286H33.8167L35.4267 18.488L37.0647 12.286H38.7307L40.2987 18.46L41.8947 12.286H43.4627ZM51.6382 20.126C50.9102 20.126 50.2522 19.9627 49.6642 19.636C49.0762 19.3 48.6142 18.8333 48.2782 18.236C47.9422 17.6293 47.7742 16.9293 47.7742 16.136C47.7742 15.352 47.9469 14.6567 48.2922 14.05C48.6375 13.4433 49.1089 12.9767 49.7062 12.65C50.3035 12.3233 50.9709 12.16 51.7082 12.16C52.4455 12.16 53.1129 12.3233 53.7102 12.65C54.3075 12.9767 54.7789 13.4433 55.1242 14.05C55.4695 14.6567 55.6422 15.352 55.6422 16.136C55.6422 16.92 55.4649 17.6153 55.1102 18.222C54.7555 18.8287 54.2702 19.3 53.6542 19.636C53.0475 19.9627 52.3755 20.126 51.6382 20.126ZM51.6382 18.74C52.0489 18.74 52.4315 18.642 52.7862 18.446C53.1502 18.25 53.4442 17.956 53.6682 17.564C53.8922 17.172 54.0042 16.696 54.0042 16.136C54.0042 15.576 53.8969 15.1047 53.6822 14.722C53.4675 14.33 53.1829 14.036 52.8282 13.84C52.4735 13.644 52.0909 13.546 51.6802 13.546C51.2695 13.546 50.8869 13.644 50.5322 13.84C50.1869 14.036 49.9115 14.33 49.7062 14.722C49.5009 15.1047 49.3982 15.576 49.3982 16.136C49.3982 16.9667 49.6082 17.6107 50.0282 18.068C50.4575 18.516 50.9942 18.74 51.6382 18.74ZM61.1119 12.16C61.7186 12.16 62.2599 12.286 62.7359 12.538C63.2213 12.79 63.5993 13.1633 63.8699 13.658C64.1406 14.1527 64.2759 14.75 64.2759 15.45V20H62.6939V15.688C62.6939 14.9973 62.5213 14.47 62.1759 14.106C61.8306 13.7327 61.3593 13.546 60.7619 13.546C60.1646 13.546 59.6886 13.7327 59.3339 14.106C58.9886 14.47 58.8159 14.9973 58.8159 15.688V20H57.2199V12.286H58.8159V13.168C59.0773 12.8507 59.4086 12.6033 59.8099 12.426C60.2206 12.2487 60.6546 12.16 61.1119 12.16ZM79.2864 12.16C79.8931 12.16 80.4344 12.286 80.9104 12.538C81.3958 12.79 81.7738 13.1633 82.0444 13.658C82.3244 14.1527 82.4644 14.75 82.4644 15.45V20H80.8824V15.688C80.8824 14.9973 80.7098 14.47 80.3644 14.106C80.0191 13.7327 79.5478 13.546 78.9504 13.546C78.3531 13.546 77.8771 13.7327 77.5224 14.106C77.1771 14.47 77.0044 14.9973 77.0044 15.688V20H75.4224V15.688C75.4224 14.9973 75.2498 14.47 74.9044 14.106C74.5591 13.7327 74.0878 13.546 73.4904 13.546C72.8931 13.546 72.4171 13.7327 72.0624 14.106C71.7171 14.47 71.5444 14.9973 71.5444 15.688V20H69.9484V12.286H71.5444V13.168C71.8058 12.8507 72.1371 12.6033 72.5384 12.426C72.9398 12.2487 73.3691 12.16 73.8264 12.16C74.4424 12.16 74.9931 12.2907 75.4784 12.552C75.9638 12.8133 76.3371 13.1913 76.5984 13.686C76.8318 13.2193 77.1958 12.8507 77.6904 12.58C78.1851 12.3 78.7171 12.16 79.2864 12.16ZM83.9633 16.108C83.9633 15.3333 84.122 14.6473 84.4393 14.05C84.766 13.4527 85.2046 12.9907 85.7553 12.664C86.3153 12.328 86.9313 12.16 87.6033 12.16C88.21 12.16 88.7373 12.2813 89.1853 12.524C89.6426 12.7573 90.0066 13.0513 90.2773 13.406V12.286H91.8873V20H90.2773V18.852C90.0066 19.216 89.638 19.5193 89.1713 19.762C88.7046 20.0047 88.1726 20.126 87.5753 20.126C86.9126 20.126 86.306 19.958 85.7553 19.622C85.2046 19.2767 84.766 18.8007 84.4393 18.194C84.122 17.578 83.9633 16.8827 83.9633 16.108ZM90.2773 16.136C90.2773 15.604 90.1653 15.142 89.9413 14.75C89.7266 14.358 89.442 14.0593 89.0873 13.854C88.7326 13.6487 88.35 13.546 87.9393 13.546C87.5286 13.546 87.146 13.6487 86.7913 13.854C86.4366 14.05 86.1473 14.344 85.9233 14.736C85.7086 15.1187 85.6013 15.576 85.6013 16.108C85.6013 16.64 85.7086 17.1067 85.9233 17.508C86.1473 17.9093 86.4366 18.2173 86.7913 18.432C87.1553 18.6373 87.538 18.74 87.9393 18.74C88.35 18.74 88.7326 18.6373 89.0873 18.432C89.442 18.2267 89.7266 17.928 89.9413 17.536C90.1653 17.1347 90.2773 16.668 90.2773 16.136ZM95.5796 13.42C95.8503 13.0653 96.2189 12.7667 96.6856 12.524C97.1523 12.2813 97.6796 12.16 98.2676 12.16C98.9396 12.16 99.5509 12.328 100.102 12.664C100.662 12.9907 101.1 13.4527 101.418 14.05C101.735 14.6473 101.894 15.3333 101.894 16.108C101.894 16.8827 101.735 17.578 101.418 18.194C101.1 18.8007 100.662 19.2767 100.102 19.622C99.5509 19.958 98.9396 20.126 98.2676 20.126C97.6796 20.126 97.1569 20.0093 96.6996 19.776C96.2423 19.5333 95.8689 19.2347 95.5796 18.88V23.668H93.9836V12.286H95.5796V13.42ZM100.27 16.108C100.27 15.576 100.158 15.1187 99.9336 14.736C99.7189 14.344 99.4296 14.05 99.0656 13.854C98.7109 13.6487 98.3283 13.546 97.9176 13.546C97.5163 13.546 97.1336 13.6487 96.7696 13.854C96.4149 14.0593 96.1256 14.358 95.9016 14.75C95.6869 15.142 95.5796 15.604 95.5796 16.136C95.5796 16.668 95.6869 17.1347 95.9016 17.536C96.1256 17.928 96.4149 18.2267 96.7696 18.432C97.1336 18.6373 97.5163 18.74 97.9176 18.74C98.3283 18.74 98.7109 18.6373 99.0656 18.432C99.4296 18.2173 99.7189 17.9093 99.9336 17.508C100.158 17.1067 100.27 16.64 100.27 16.108Z" fill="#009933"/>
</svg>
