<svg width="19" height="20" viewBox="0 0 19 20" fill="none" xmlns="http://www.w3.org/2000/svg">
<path d="M8.31332 16.4394C8.94954 16.4394 9.58575 16.468 10.222 16.4258C10.8009 16.3972 11.41 16.3415 11.9753 16.2C16.471 15.0994 18.8742 10.1432 16.9083 5.95181C15.7203 3.42402 13.685 1.98323 10.9004 1.68664C8.76561 1.46081 6.85696 2.09614 5.24531 3.53543C3.66231 4.96117 2.84217 6.73921 2.78639 8.87104C2.77282 9.36486 2.78639 9.87373 2.78639 10.3675C2.77131 11.4425 2.16374 12.2751 1.13102 12.5987C1.11745 12.5987 1.08881 12.6274 1.07373 12.6274C1.47023 13.6722 3.08037 15.2108 4.08445 15.5917C5.34482 13.8694 7.88817 14.4777 8.31332 16.4394Z" fill="white"/>
<path d="M8.28462 17.3848C8.12934 18.0909 7.74791 18.6133 7.12526 18.937C6.33376 19.3465 5.52718 19.333 4.7779 18.8527C3.99997 18.3589 3.66075 17.6106 3.71804 16.6923C3.73161 16.5372 3.6894 16.48 3.56276 16.4092C2.19082 15.6896 1.10383 14.6869 0.354542 13.3319C0.212826 13.0639 0.0997543 12.7809 0.0288962 12.4843C-0.0706067 12.0748 0.0861857 11.8776 0.509827 11.8354C1.0194 11.7782 1.47169 11.581 1.69783 11.1007C1.79733 10.8884 1.85312 10.6355 1.85312 10.3946C1.88176 9.78787 1.85312 9.18114 1.88176 8.57291C2.03705 6.22879 3.01248 4.28214 4.79448 2.75703C6.43326 1.34785 8.35548 0.685416 10.5174 0.75467C14.2925 0.896191 17.5293 3.55045 18.2922 7.26309C18.9842 10.6234 17.9394 13.4328 15.2664 15.6203C15.1111 15.7468 14.9408 15.8747 14.7568 15.9877C14.6573 16.0584 14.6302 16.1141 14.6724 16.227C15.0252 17.3005 14.5307 18.4853 13.5417 18.9942C12.1984 19.6582 10.644 18.9807 10.234 17.5399C10.2204 17.4827 10.1495 17.4134 10.1073 17.4134C9.51484 17.3712 8.90576 17.3848 8.28462 17.3848ZM8.31327 16.4393C8.94948 16.4393 9.5857 16.4679 10.2219 16.4258C10.8008 16.3972 11.4099 16.3415 11.9753 16.1999C16.471 15.0994 18.8741 10.1432 16.9082 5.95177C15.7202 3.42398 13.6849 1.98319 10.9003 1.6866C8.76555 1.46077 6.85691 2.0961 5.24526 3.53539C3.66226 4.96113 2.84211 6.73917 2.78633 8.871C2.77276 9.36482 2.78633 9.87369 2.78633 10.3675C2.77126 11.4425 2.16369 12.275 1.13097 12.5987C1.1174 12.5987 1.08875 12.6273 1.07368 12.6273C1.47018 13.6722 3.08032 15.2108 4.08439 15.5917C5.34476 13.8694 7.88812 14.4776 8.31327 16.4393Z" fill="black"/>
<path d="M11.2953 12.7553C9.62637 12.671 8.5243 12.007 7.81722 10.6807C7.64686 10.3555 7.80366 10.0318 8.12779 9.96103C8.32529 9.91887 8.50922 10.0604 8.65094 10.2862C8.83487 10.5693 9.0188 10.8508 9.25851 11.0766C10.5867 12.3322 12.7637 11.9378 13.5989 10.3148C13.6984 10.1176 13.8251 9.96253 14.0648 9.96253C14.4176 9.97608 14.6166 10.3299 14.4613 10.6536C14.0226 11.5433 13.3306 12.1922 12.3974 12.5024C11.9873 12.6424 11.5637 12.6981 11.2953 12.7553Z" fill="black"/>
<path d="M8.3405 8.12427C7.83093 8.12427 7.42236 7.71476 7.42236 7.2074C7.42236 6.70003 7.83244 6.29053 8.3405 6.29053C8.84857 6.29053 9.25864 6.70003 9.25864 7.2074C9.26015 7.70121 8.85008 8.12427 8.3405 8.12427Z" fill="black"/>
<path d="M14.8159 7.19226C14.8159 7.70113 14.4058 8.10913 13.9113 8.12419C13.4017 8.12419 12.9932 7.72823 12.9932 7.20732C12.9932 6.69845 13.3897 6.29045 13.8977 6.27539C14.3922 6.27539 14.8008 6.6849 14.8159 7.19226Z" fill="black"/>
</svg>
